{
	"patcher" : 	{
		"fileversion" : 1,
		"appversion" : 		{
			"major" : 8,
			"minor" : 6,
			"revision" : 0,
			"architecture" : "x64",
			"modernui" : 1
		}
,
		"classnamespace" : "box",
		"rect" : [ 1954.0, 77.0, 1478.0, 921.0 ],
		"bglocked" : 0,
		"openinpresentation" : 1,
		"default_fontsize" : 12.0,
		"default_fontface" : 0,
		"default_fontname" : "Arial",
		"gridonopen" : 1,
		"gridsize" : [ 15.0, 15.0 ],
		"gridsnaponopen" : 1,
		"objectsnaponopen" : 1,
		"statusbarvisible" : 2,
		"toolbarvisible" : 1,
		"lefttoolbarpinned" : 0,
		"toptoolbarpinned" : 0,
		"righttoolbarpinned" : 0,
		"bottomtoolbarpinned" : 0,
		"toolbars_unpinned_last_save" : 0,
		"tallnewobj" : 0,
		"boxanimatetime" : 200,
		"enablehscroll" : 1,
		"enablevscroll" : 1,
		"devicewidth" : 0.0,
		"description" : "",
		"digest" : "",
		"tags" : "",
		"style" : "",
		"subpatcher_template" : "",
		"assistshowspatchername" : 0,
		"boxes" : [ 			{
				"box" : 				{
					"id" : "obj-13",
					"maxclass" : "comment",
					"numinlets" : 1,
					"numoutlets" : 0,
					"patching_rect" : [ 587.5, 498.0, 150.0, 20.0 ],
					"presentation" : 1,
					"presentation_rect" : [ 158.0, 329.0, 74.0, 20.0 ],
					"text" : "inverted",
					"textcolor" : [ 0.831372549019608, 0.831372549019608, 0.831372549019608, 1.0 ],
					"textjustification" : 1
				}

			}
, 			{
				"box" : 				{
					"bgcolor" : [ 0.313725490196078, 0.345098039215686, 0.36078431372549, 1.0 ],
					"id" : "obj-85",
					"maxclass" : "led",
					"numinlets" : 1,
					"numoutlets" : 1,
					"offcolor" : [ 0.129411764705882, 0.129411764705882, 0.129411764705882, 1.0 ],
					"oncolor" : [ 0.945098039215686, 0.407843137254902, 0.368627450980392, 1.0 ],
					"outlettype" : [ "int" ],
					"parameter_enable" : 0,
					"patching_rect" : [ 838.0, 266.0, 24.0, 24.0 ],
					"presentation" : 1,
					"presentation_rect" : [ 26.0, 299.0, 24.0, 24.0 ]
				}

			}
, 			{
				"box" : 				{
					"bgcolor" : [ 0.313725490196078, 0.345098039215686, 0.36078431372549, 1.0 ],
					"id" : "obj-81",
					"maxclass" : "led",
					"numinlets" : 1,
					"numoutlets" : 1,
					"offcolor" : [ 0.129411764705882, 0.129411764705882, 0.129411764705882, 1.0 ],
					"oncolor" : [ 0.945098039215686, 0.407843137254902, 0.368627450980392, 1.0 ],
					"outlettype" : [ "int" ],
					"parameter_enable" : 0,
					"patching_rect" : [ 758.5, 266.0, 24.0, 24.0 ],
					"presentation" : 1,
					"presentation_rect" : [ 26.0, 264.0, 24.0, 24.0 ]
				}

			}
, 			{
				"box" : 				{
					"bgcolor" : [ 0.313725490196078, 0.345098039215686, 0.36078431372549, 1.0 ],
					"id" : "obj-9",
					"maxclass" : "led",
					"numinlets" : 1,
					"numoutlets" : 1,
					"offcolor" : [ 0.129411764705882, 0.129411764705882, 0.129411764705882, 1.0 ],
					"oncolor" : [ 0.945098039215686, 0.407843137254902, 0.368627450980392, 1.0 ],
					"outlettype" : [ "int" ],
					"parameter_enable" : 0,
					"patching_rect" : [ 680.0, 266.0, 24.0, 24.0 ],
					"presentation" : 1,
					"presentation_rect" : [ 26.0, 229.0, 24.0, 24.0 ]
				}

			}
, 			{
				"box" : 				{
					"bgcolor" : [ 0.313725490196078, 0.345098039215686, 0.36078431372549, 1.0 ],
					"id" : "obj-82",
					"maxclass" : "led",
					"numinlets" : 1,
					"numoutlets" : 1,
					"offcolor" : [ 0.129411764705882, 0.129411764705882, 0.129411764705882, 1.0 ],
					"oncolor" : [ 0.945098039215686, 0.407843137254902, 0.368627450980392, 1.0 ],
					"outlettype" : [ "int" ],
					"parameter_enable" : 0,
					"patching_rect" : [ 602.5, 266.0, 24.0, 24.0 ],
					"presentation" : 1,
					"presentation_rect" : [ 26.0, 194.0, 24.0, 24.0 ]
				}

			}
, 			{
				"box" : 				{
					"bgcolor" : [ 0.313725490196078, 0.345098039215686, 0.36078431372549, 1.0 ],
					"id" : "obj-7",
					"maxclass" : "led",
					"numinlets" : 1,
					"numoutlets" : 1,
					"offcolor" : [ 0.129411764705882, 0.129411764705882, 0.129411764705882, 1.0 ],
					"oncolor" : [ 0.945098039215686, 0.407843137254902, 0.368627450980392, 1.0 ],
					"outlettype" : [ "int" ],
					"parameter_enable" : 0,
					"patching_rect" : [ 523.5, 266.0, 24.0, 24.0 ],
					"presentation" : 1,
					"presentation_rect" : [ 26.0, 159.0, 24.0, 24.0 ]
				}

			}
, 			{
				"box" : 				{
					"bgcolor" : [ 0.313725490196078, 0.345098039215686, 0.36078431372549, 1.0 ],
					"id" : "obj-83",
					"maxclass" : "led",
					"numinlets" : 1,
					"numoutlets" : 1,
					"offcolor" : [ 0.129411764705882, 0.129411764705882, 0.129411764705882, 1.0 ],
					"oncolor" : [ 0.945098039215686, 0.407843137254902, 0.368627450980392, 1.0 ],
					"outlettype" : [ "int" ],
					"parameter_enable" : 0,
					"patching_rect" : [ 444.5, 266.0, 24.0, 24.0 ],
					"presentation" : 1,
					"presentation_rect" : [ 26.0, 124.0, 24.0, 24.0 ]
				}

			}
, 			{
				"box" : 				{
					"bgcolor" : [ 0.313725490196078, 0.345098039215686, 0.36078431372549, 1.0 ],
					"id" : "obj-84",
					"maxclass" : "led",
					"numinlets" : 1,
					"numoutlets" : 1,
					"offcolor" : [ 0.129411764705882, 0.129411764705882, 0.129411764705882, 1.0 ],
					"oncolor" : [ 0.945098039215686, 0.407843137254902, 0.368627450980392, 1.0 ],
					"outlettype" : [ "int" ],
					"parameter_enable" : 0,
					"patching_rect" : [ 366.5, 266.0, 24.0, 24.0 ],
					"presentation" : 1,
					"presentation_rect" : [ 26.0, 89.0, 24.0, 24.0 ]
				}

			}
, 			{
				"box" : 				{
					"bgcolor" : [ 0.313725490196078, 0.345098039215686, 0.36078431372549, 1.0 ],
					"id" : "obj-3",
					"maxclass" : "led",
					"numinlets" : 1,
					"numoutlets" : 1,
					"offcolor" : [ 0.129411764705882, 0.129411764705882, 0.129411764705882, 1.0 ],
					"oncolor" : [ 0.945098039215686, 0.407843137254902, 0.368627450980392, 1.0 ],
					"outlettype" : [ "int" ],
					"parameter_enable" : 0,
					"patching_rect" : [ 288.5, 266.0, 24.0, 24.0 ],
					"presentation" : 1,
					"presentation_rect" : [ 26.0, 54.0, 24.0, 24.0 ]
				}

			}
, 			{
				"box" : 				{
					"id" : "obj-72",
					"maxclass" : "newobj",
					"numinlets" : 2,
					"numoutlets" : 1,
					"outlettype" : [ "float" ],
					"patching_rect" : [ 543.5, 751.0, 129.0, 22.0 ],
					"text" : "+ 0."
				}

			}
, 			{
				"box" : 				{
					"id" : "obj-73",
					"maxclass" : "newobj",
					"numinlets" : 2,
					"numoutlets" : 1,
					"outlettype" : [ "float" ],
					"patching_rect" : [ 653.5, 702.0, 75.5, 22.0 ],
					"text" : "* 0.5"
				}

			}
, 			{
				"box" : 				{
					"id" : "obj-74",
					"maxclass" : "newobj",
					"numinlets" : 2,
					"numoutlets" : 1,
					"outlettype" : [ "float" ],
					"patching_rect" : [ 709.5, 655.0, 29.5, 22.0 ],
					"text" : "!- 1."
				}

			}
, 			{
				"box" : 				{
					"format" : 6,
					"id" : "obj-75",
					"maxclass" : "flonum",
					"maximum" : 1.0,
					"minimum" : 0.0,
					"numinlets" : 1,
					"numoutlets" : 2,
					"outlettype" : [ "", "bang" ],
					"parameter_enable" : 0,
					"patching_rect" : [ 653.5, 655.0, 50.0, 22.0 ]
				}

			}
, 			{
				"box" : 				{
					"id" : "obj-76",
					"maxclass" : "newobj",
					"numinlets" : 1,
					"numoutlets" : 3,
					"outlettype" : [ "float", "bang", "float" ],
					"patching_rect" : [ 596.5, 610.0, 132.0, 22.0 ],
					"text" : "t f b f"
				}

			}
, 			{
				"box" : 				{
					"id" : "obj-77",
					"maxclass" : "newobj",
					"numinlets" : 2,
					"numoutlets" : 1,
					"outlettype" : [ "float" ],
					"patching_rect" : [ 543.5, 655.0, 72.0, 22.0 ],
					"text" : "* 1."
				}

			}
, 			{
				"box" : 				{
					"activedialcolor" : [ 0.427450980392157, 0.650980392156863, 0.776470588235294, 1.0 ],
					"activefgdialcolor" : [ 0.831372549019608, 0.831372549019608, 0.831372549019608, 1.0 ],
					"activeneedlecolor" : [ 0.831372549019608, 0.831372549019608, 0.831372549019608, 1.0 ],
					"dialcolor" : [ 0.129411764705882, 0.129411764705882, 0.129411764705882, 1.0 ],
					"fgdialcolor" : [ 0.129411764705882, 0.129411764705882, 0.129411764705882, 1.0 ],
					"fontname" : "Arial",
					"fontsize" : 12.0,
					"id" : "obj-78",
					"maxclass" : "live.dial",
					"needlecolor" : [ 0.129411764705882, 0.129411764705882, 0.129411764705882, 1.0 ],
					"numinlets" : 1,
					"numoutlets" : 2,
					"outlettype" : [ "", "float" ],
					"parameter_enable" : 1,
					"patching_rect" : [ 680.5, 533.0, 52.0, 52.0 ],
					"presentation" : 1,
					"presentation_rect" : [ 201.0, 351.0, 31.0, 52.0 ],
					"saved_attribute_attributes" : 					{
						"activedialcolor" : 						{
							"expression" : ""
						}
,
						"activefgdialcolor" : 						{
							"expression" : ""
						}
,
						"activeneedlecolor" : 						{
							"expression" : ""
						}
,
						"dialcolor" : 						{
							"expression" : ""
						}
,
						"fgdialcolor" : 						{
							"expression" : ""
						}
,
						"needlecolor" : 						{
							"expression" : ""
						}
,
						"textcolor" : 						{
							"expression" : ""
						}
,
						"tricolor" : 						{
							"expression" : ""
						}
,
						"valueof" : 						{
							"parameter_longname" : "offset[1]",
							"parameter_mmax" : 1.0,
							"parameter_shortname" : "offset",
							"parameter_type" : 0,
							"parameter_unitstyle" : 1
						}

					}
,
					"textcolor" : [ 0.831372549019608, 0.831372549019608, 0.831372549019608, 1.0 ],
					"tricolor" : [ 0.831372549019608, 0.831372549019608, 0.831372549019608, 1.0 ],
					"varname" : "offset[1]"
				}

			}
, 			{
				"box" : 				{
					"activedialcolor" : [ 0.427450980392157, 0.650980392156863, 0.776470588235294, 1.0 ],
					"activefgdialcolor" : [ 0.831372549019608, 0.831372549019608, 0.831372549019608, 1.0 ],
					"activeneedlecolor" : [ 0.831372549019608, 0.831372549019608, 0.831372549019608, 1.0 ],
					"dialcolor" : [ 0.129411764705882, 0.129411764705882, 0.129411764705882, 1.0 ],
					"fgdialcolor" : [ 0.129411764705882, 0.129411764705882, 0.129411764705882, 1.0 ],
					"fontname" : "Arial",
					"fontsize" : 12.0,
					"id" : "obj-79",
					"maxclass" : "live.dial",
					"needlecolor" : [ 0.129411764705882, 0.129411764705882, 0.129411764705882, 1.0 ],
					"numinlets" : 1,
					"numoutlets" : 2,
					"outlettype" : [ "", "float" ],
					"parameter_enable" : 1,
					"patching_rect" : [ 596.5, 533.0, 52.0, 52.0 ],
					"presentation" : 1,
					"presentation_rect" : [ 158.0, 351.0, 31.0, 52.0 ],
					"saved_attribute_attributes" : 					{
						"activedialcolor" : 						{
							"expression" : ""
						}
,
						"activefgdialcolor" : 						{
							"expression" : ""
						}
,
						"activeneedlecolor" : 						{
							"expression" : ""
						}
,
						"dialcolor" : 						{
							"expression" : ""
						}
,
						"fgdialcolor" : 						{
							"expression" : ""
						}
,
						"needlecolor" : 						{
							"expression" : ""
						}
,
						"textcolor" : 						{
							"expression" : ""
						}
,
						"tricolor" : 						{
							"expression" : ""
						}
,
						"valueof" : 						{
							"parameter_longname" : "scale[1]",
							"parameter_mmax" : 1.0,
							"parameter_shortname" : "scale",
							"parameter_type" : 0,
							"parameter_unitstyle" : 1
						}

					}
,
					"textcolor" : [ 0.831372549019608, 0.831372549019608, 0.831372549019608, 1.0 ],
					"tricolor" : [ 0.831372549019608, 0.831372549019608, 0.831372549019608, 1.0 ],
					"varname" : "scale[1]"
				}

			}
, 			{
				"box" : 				{
					"comment" : "(float) inverted output (0. – 1.)",
					"id" : "obj-80",
					"index" : 0,
					"maxclass" : "outlet",
					"numinlets" : 1,
					"numoutlets" : 0,
					"patching_rect" : [ 543.5, 806.0, 30.0, 30.0 ]
				}

			}
, 			{
				"box" : 				{
					"id" : "obj-71",
					"maxclass" : "newobj",
					"numinlets" : 2,
					"numoutlets" : 1,
					"outlettype" : [ "float" ],
					"patching_rect" : [ 543.5, 610.0, 29.5, 22.0 ],
					"text" : "!- 1."
				}

			}
, 			{
				"box" : 				{
					"bgcolor" : [ 0.129411764705882, 0.129411764705882, 0.129411764705882, 1.0 ],
					"elementcolor" : [ 0.129411764705882, 0.129411764705882, 0.129411764705882, 1.0 ],
					"floatoutput" : 1,
					"id" : "obj-62",
					"knobcolor" : [ 0.427450980392157, 0.650980392156863, 0.776470588235294, 1.0 ],
					"maxclass" : "slider",
					"mult" : 0.001,
					"numinlets" : 1,
					"numoutlets" : 1,
					"outlettype" : [ "" ],
					"parameter_enable" : 0,
					"patching_rect" : [ 864.0, 154.0, 20.0, 140.0 ],
					"presentation" : 1,
					"presentation_rect" : [ 52.0, 301.0, 180.0, 20.0 ],
					"size" : 1000.0
				}

			}
, 			{
				"box" : 				{
					"bgcolor" : [ 0.129411764705882, 0.129411764705882, 0.129411764705882, 1.0 ],
					"elementcolor" : [ 0.129411764705882, 0.129411764705882, 0.129411764705882, 1.0 ],
					"floatoutput" : 1,
					"id" : "obj-63",
					"knobcolor" : [ 0.427450980392157, 0.650980392156863, 0.776470588235294, 1.0 ],
					"maxclass" : "slider",
					"mult" : 0.001,
					"numinlets" : 1,
					"numoutlets" : 1,
					"outlettype" : [ "" ],
					"parameter_enable" : 0,
					"patching_rect" : [ 784.5, 154.0, 20.0, 140.0 ],
					"presentation" : 1,
					"presentation_rect" : [ 52.0, 266.0, 180.0, 20.0 ],
					"size" : 1000.0
				}

			}
, 			{
				"box" : 				{
					"bgcolor" : [ 0.129411764705882, 0.129411764705882, 0.129411764705882, 1.0 ],
					"elementcolor" : [ 0.129411764705882, 0.129411764705882, 0.129411764705882, 1.0 ],
					"floatoutput" : 1,
					"id" : "obj-64",
					"knobcolor" : [ 0.427450980392157, 0.650980392156863, 0.776470588235294, 1.0 ],
					"maxclass" : "slider",
					"mult" : 0.001,
					"numinlets" : 1,
					"numoutlets" : 1,
					"outlettype" : [ "" ],
					"parameter_enable" : 0,
					"patching_rect" : [ 706.0, 154.0, 20.0, 140.0 ],
					"presentation" : 1,
					"presentation_rect" : [ 52.0, 231.0, 180.0, 20.0 ],
					"size" : 1000.0
				}

			}
, 			{
				"box" : 				{
					"id" : "obj-65",
					"maxclass" : "newobj",
					"numinlets" : 1,
					"numoutlets" : 2,
					"outlettype" : [ "bang", "float" ],
					"patching_rect" : [ 864.0, 329.0, 29.5, 22.0 ],
					"text" : "t b f"
				}

			}
, 			{
				"box" : 				{
					"id" : "obj-66",
					"maxclass" : "newobj",
					"numinlets" : 1,
					"numoutlets" : 2,
					"outlettype" : [ "bang", "float" ],
					"patching_rect" : [ 784.5, 329.0, 29.5, 22.0 ],
					"text" : "t b f"
				}

			}
, 			{
				"box" : 				{
					"id" : "obj-67",
					"maxclass" : "newobj",
					"numinlets" : 1,
					"numoutlets" : 2,
					"outlettype" : [ "bang", "float" ],
					"patching_rect" : [ 706.0, 329.0, 29.5, 22.0 ],
					"text" : "t b f"
				}

			}
, 			{
				"box" : 				{
					"id" : "obj-68",
					"maxclass" : "newobj",
					"numinlets" : 2,
					"numoutlets" : 1,
					"outlettype" : [ "float" ],
					"patching_rect" : [ 853.0, 379.0, 40.0, 22.0 ],
					"text" : "* 0."
				}

			}
, 			{
				"box" : 				{
					"id" : "obj-69",
					"maxclass" : "newobj",
					"numinlets" : 2,
					"numoutlets" : 1,
					"outlettype" : [ "float" ],
					"patching_rect" : [ 774.5, 379.0, 39.0, 22.0 ],
					"text" : "* 0."
				}

			}
, 			{
				"box" : 				{
					"id" : "obj-70",
					"maxclass" : "newobj",
					"numinlets" : 2,
					"numoutlets" : 1,
					"outlettype" : [ "float" ],
					"patching_rect" : [ 696.0, 379.0, 39.5, 22.0 ],
					"text" : "* 0."
				}

			}
, 			{
				"box" : 				{
					"bgcolor" : [ 0.129411764705882, 0.129411764705882, 0.129411764705882, 1.0 ],
					"elementcolor" : [ 0.129411764705882, 0.129411764705882, 0.129411764705882, 1.0 ],
					"floatoutput" : 1,
					"id" : "obj-46",
					"knobcolor" : [ 0.427450980392157, 0.650980392156863, 0.776470588235294, 1.0 ],
					"maxclass" : "slider",
					"mult" : 0.001,
					"numinlets" : 1,
					"numoutlets" : 1,
					"outlettype" : [ "" ],
					"parameter_enable" : 0,
					"patching_rect" : [ 628.5, 154.0, 20.0, 140.0 ],
					"presentation" : 1,
					"presentation_rect" : [ 52.0, 196.0, 180.0, 20.0 ],
					"size" : 1000.0
				}

			}
, 			{
				"box" : 				{
					"bgcolor" : [ 0.129411764705882, 0.129411764705882, 0.129411764705882, 1.0 ],
					"elementcolor" : [ 0.129411764705882, 0.129411764705882, 0.129411764705882, 1.0 ],
					"floatoutput" : 1,
					"id" : "obj-45",
					"knobcolor" : [ 0.427450980392157, 0.650980392156863, 0.776470588235294, 1.0 ],
					"maxclass" : "slider",
					"mult" : 0.001,
					"numinlets" : 1,
					"numoutlets" : 1,
					"outlettype" : [ "" ],
					"parameter_enable" : 0,
					"patching_rect" : [ 549.5, 154.0, 20.0, 140.0 ],
					"presentation" : 1,
					"presentation_rect" : [ 52.0, 161.0, 180.0, 20.0 ],
					"size" : 1000.0
				}

			}
, 			{
				"box" : 				{
					"bgcolor" : [ 0.129411764705882, 0.129411764705882, 0.129411764705882, 1.0 ],
					"elementcolor" : [ 0.129411764705882, 0.129411764705882, 0.129411764705882, 1.0 ],
					"floatoutput" : 1,
					"id" : "obj-43",
					"knobcolor" : [ 0.427450980392157, 0.650980392156863, 0.776470588235294, 1.0 ],
					"maxclass" : "slider",
					"mult" : 0.001,
					"numinlets" : 1,
					"numoutlets" : 1,
					"outlettype" : [ "" ],
					"parameter_enable" : 0,
					"patching_rect" : [ 470.5, 154.0, 20.0, 140.0 ],
					"presentation" : 1,
					"presentation_rect" : [ 52.0, 126.0, 180.0, 20.0 ],
					"size" : 1000.0
				}

			}
, 			{
				"box" : 				{
					"bgcolor" : [ 0.129411764705882, 0.129411764705882, 0.129411764705882, 1.0 ],
					"elementcolor" : [ 0.129411764705882, 0.129411764705882, 0.129411764705882, 1.0 ],
					"floatoutput" : 1,
					"id" : "obj-42",
					"knobcolor" : [ 0.427450980392157, 0.650980392156863, 0.776470588235294, 1.0 ],
					"maxclass" : "slider",
					"mult" : 0.001,
					"numinlets" : 1,
					"numoutlets" : 1,
					"outlettype" : [ "" ],
					"parameter_enable" : 0,
					"patching_rect" : [ 392.5, 154.0, 20.0, 140.0 ],
					"presentation" : 1,
					"presentation_rect" : [ 52.0, 91.0, 180.0, 20.0 ],
					"size" : 1000.0
				}

			}
, 			{
				"box" : 				{
					"bgcolor" : [ 0.129411764705882, 0.129411764705882, 0.129411764705882, 1.0 ],
					"elementcolor" : [ 0.129411764705882, 0.129411764705882, 0.129411764705882, 1.0 ],
					"floatoutput" : 1,
					"id" : "obj-2",
					"knobcolor" : [ 0.427450980392157, 0.650980392156863, 0.776470588235294, 1.0 ],
					"maxclass" : "slider",
					"mult" : 0.001,
					"numinlets" : 1,
					"numoutlets" : 1,
					"outlettype" : [ "" ],
					"parameter_enable" : 0,
					"patching_rect" : [ 314.5, 154.0, 20.0, 140.0 ],
					"presentation" : 1,
					"presentation_rect" : [ 52.0, 56.0, 180.0, 20.0 ],
					"size" : 1000.0
				}

			}
, 			{
				"box" : 				{
					"id" : "obj-44",
					"linecount" : 2,
					"maxclass" : "comment",
					"numinlets" : 1,
					"numoutlets" : 0,
					"patching_rect" : [ 81.0, 522.0, 151.0, 33.0 ],
					"presentation" : 1,
					"presentation_linecount" : 2,
					"presentation_rect" : [ 66.5, 439.0, 137.0, 33.0 ],
					"text" : "resize bpatcher window to 270×416 for best fit",
					"textjustification" : 1
				}

			}
, 			{
				"box" : 				{
					"fontsize" : 24.0,
					"id" : "obj-38",
					"maxclass" : "comment",
					"numinlets" : 1,
					"numoutlets" : 0,
					"patching_rect" : [ 7.5, 308.0, 287.0, 33.0 ],
					"presentation" : 1,
					"presentation_rect" : [ 0.0, 6.0, 269.0, 33.0 ],
					"text" : "TURING : VOLTAGES",
					"textcolor" : [ 0.831372549019608, 0.831372549019608, 0.831372549019608, 1.0 ],
					"textjustification" : 1
				}

			}
, 			{
				"box" : 				{
					"id" : "obj-36",
					"maxclass" : "newobj",
					"numinlets" : 2,
					"numoutlets" : 1,
					"outlettype" : [ "float" ],
					"patching_rect" : [ 303.5, 751.0, 129.0, 22.0 ],
					"text" : "+ 0."
				}

			}
, 			{
				"box" : 				{
					"id" : "obj-35",
					"maxclass" : "newobj",
					"numinlets" : 2,
					"numoutlets" : 1,
					"outlettype" : [ "float" ],
					"patching_rect" : [ 413.5, 702.0, 75.5, 22.0 ],
					"text" : "* 0.5"
				}

			}
, 			{
				"box" : 				{
					"id" : "obj-34",
					"maxclass" : "newobj",
					"numinlets" : 2,
					"numoutlets" : 1,
					"outlettype" : [ "float" ],
					"patching_rect" : [ 469.5, 655.0, 29.5, 22.0 ],
					"text" : "!- 1."
				}

			}
, 			{
				"box" : 				{
					"format" : 6,
					"id" : "obj-33",
					"maxclass" : "flonum",
					"maximum" : 1.0,
					"minimum" : 0.0,
					"numinlets" : 1,
					"numoutlets" : 2,
					"outlettype" : [ "", "bang" ],
					"parameter_enable" : 0,
					"patching_rect" : [ 413.5, 655.0, 50.0, 22.0 ]
				}

			}
, 			{
				"box" : 				{
					"id" : "obj-31",
					"maxclass" : "newobj",
					"numinlets" : 1,
					"numoutlets" : 3,
					"outlettype" : [ "float", "bang", "float" ],
					"patching_rect" : [ 356.5, 610.0, 132.0, 22.0 ],
					"text" : "t f b f"
				}

			}
, 			{
				"box" : 				{
					"id" : "obj-30",
					"maxclass" : "newobj",
					"numinlets" : 2,
					"numoutlets" : 1,
					"outlettype" : [ "float" ],
					"patching_rect" : [ 303.5, 655.0, 72.0, 22.0 ],
					"text" : "* 1."
				}

			}
, 			{
				"box" : 				{
					"activedialcolor" : [ 0.427450980392157, 0.650980392156863, 0.776470588235294, 1.0 ],
					"activefgdialcolor" : [ 0.831372549019608, 0.831372549019608, 0.831372549019608, 1.0 ],
					"activeneedlecolor" : [ 0.831372549019608, 0.831372549019608, 0.831372549019608, 1.0 ],
					"dialcolor" : [ 0.129411764705882, 0.129411764705882, 0.129411764705882, 1.0 ],
					"fgdialcolor" : [ 0.129411764705882, 0.129411764705882, 0.129411764705882, 1.0 ],
					"fontname" : "Arial",
					"fontsize" : 12.0,
					"id" : "obj-29",
					"maxclass" : "live.dial",
					"needlecolor" : [ 0.129411764705882, 0.129411764705882, 0.129411764705882, 1.0 ],
					"numinlets" : 1,
					"numoutlets" : 2,
					"outlettype" : [ "", "float" ],
					"parameter_enable" : 1,
					"patching_rect" : [ 440.5, 533.0, 52.0, 52.0 ],
					"presentation" : 1,
					"presentation_rect" : [ 69.0, 351.0, 31.0, 52.0 ],
					"saved_attribute_attributes" : 					{
						"activedialcolor" : 						{
							"expression" : ""
						}
,
						"activefgdialcolor" : 						{
							"expression" : ""
						}
,
						"activeneedlecolor" : 						{
							"expression" : ""
						}
,
						"dialcolor" : 						{
							"expression" : ""
						}
,
						"fgdialcolor" : 						{
							"expression" : ""
						}
,
						"needlecolor" : 						{
							"expression" : ""
						}
,
						"textcolor" : 						{
							"expression" : ""
						}
,
						"tricolor" : 						{
							"expression" : ""
						}
,
						"valueof" : 						{
							"parameter_longname" : "offset",
							"parameter_mmax" : 1.0,
							"parameter_shortname" : "offset",
							"parameter_type" : 0,
							"parameter_unitstyle" : 1
						}

					}
,
					"textcolor" : [ 0.831372549019608, 0.831372549019608, 0.831372549019608, 1.0 ],
					"tricolor" : [ 0.831372549019608, 0.831372549019608, 0.831372549019608, 1.0 ],
					"varname" : "offset"
				}

			}
, 			{
				"box" : 				{
					"id" : "obj-28",
					"maxclass" : "newobj",
					"numinlets" : 1,
					"numoutlets" : 1,
					"outlettype" : [ "" ],
					"patching_rect" : [ 440.5, 479.0, 73.0, 22.0 ],
					"text" : "loadmess 0."
				}

			}
, 			{
				"box" : 				{
					"id" : "obj-27",
					"maxclass" : "newobj",
					"numinlets" : 1,
					"numoutlets" : 1,
					"outlettype" : [ "" ],
					"patching_rect" : [ 356.5, 479.0, 73.0, 22.0 ],
					"text" : "loadmess 1."
				}

			}
, 			{
				"box" : 				{
					"activedialcolor" : [ 0.427450980392157, 0.650980392156863, 0.776470588235294, 1.0 ],
					"activefgdialcolor" : [ 0.831372549019608, 0.831372549019608, 0.831372549019608, 1.0 ],
					"activeneedlecolor" : [ 0.831372549019608, 0.831372549019608, 0.831372549019608, 1.0 ],
					"dialcolor" : [ 0.129411764705882, 0.129411764705882, 0.129411764705882, 1.0 ],
					"fgdialcolor" : [ 0.129411764705882, 0.129411764705882, 0.129411764705882, 1.0 ],
					"fontname" : "Arial",
					"fontsize" : 12.0,
					"id" : "obj-26",
					"maxclass" : "live.dial",
					"needlecolor" : [ 0.129411764705882, 0.129411764705882, 0.129411764705882, 1.0 ],
					"numinlets" : 1,
					"numoutlets" : 2,
					"outlettype" : [ "", "float" ],
					"parameter_enable" : 1,
					"patching_rect" : [ 356.5, 533.0, 52.0, 52.0 ],
					"presentation" : 1,
					"presentation_rect" : [ 26.0, 351.0, 31.0, 52.0 ],
					"saved_attribute_attributes" : 					{
						"activedialcolor" : 						{
							"expression" : ""
						}
,
						"activefgdialcolor" : 						{
							"expression" : ""
						}
,
						"activeneedlecolor" : 						{
							"expression" : ""
						}
,
						"dialcolor" : 						{
							"expression" : ""
						}
,
						"fgdialcolor" : 						{
							"expression" : ""
						}
,
						"needlecolor" : 						{
							"expression" : ""
						}
,
						"textcolor" : 						{
							"expression" : ""
						}
,
						"tricolor" : 						{
							"expression" : ""
						}
,
						"valueof" : 						{
							"parameter_longname" : "scale",
							"parameter_mmax" : 1.0,
							"parameter_shortname" : "scale",
							"parameter_type" : 0,
							"parameter_unitstyle" : 1
						}

					}
,
					"textcolor" : [ 0.831372549019608, 0.831372549019608, 0.831372549019608, 1.0 ],
					"tricolor" : [ 0.831372549019608, 0.831372549019608, 0.831372549019608, 1.0 ],
					"varname" : "scale"
				}

			}
, 			{
				"box" : 				{
					"id" : "obj-25",
					"maxclass" : "newobj",
					"numinlets" : 1,
					"numoutlets" : 1,
					"outlettype" : [ "" ],
					"patching_rect" : [ 193.0, 118.0, 83.0, 22.0 ],
					"text" : "loadmess 500"
				}

			}
, 			{
				"box" : 				{
					"comment" : "(integer list) Turing Machine's bits (pass-through)",
					"id" : "obj-23",
					"index" : 0,
					"maxclass" : "outlet",
					"numinlets" : 1,
					"numoutlets" : 0,
					"patching_rect" : [ 906.0, 806.0, 30.0, 30.0 ]
				}

			}
, 			{
				"box" : 				{
					"comment" : "(float) output (0. – 1.)",
					"id" : "obj-22",
					"index" : 0,
					"maxclass" : "outlet",
					"numinlets" : 1,
					"numoutlets" : 0,
					"patching_rect" : [ 303.5, 806.0, 30.0, 30.0 ]
				}

			}
, 			{
				"box" : 				{
					"id" : "obj-21",
					"maxclass" : "newobj",
					"numinlets" : 2,
					"numoutlets" : 1,
					"outlettype" : [ "float" ],
					"patching_rect" : [ 303.5, 533.0, 47.0, 22.0 ],
					"text" : "* 0.125"
				}

			}
, 			{
				"box" : 				{
					"id" : "obj-20",
					"maxclass" : "newobj",
					"numinlets" : 2,
					"numoutlets" : 2,
					"outlettype" : [ "", "" ],
					"patching_rect" : [ 303.5, 479.0, 43.0, 22.0 ],
					"text" : "zl.sum"
				}

			}
, 			{
				"box" : 				{
					"id" : "obj-19",
					"maxclass" : "newobj",
					"numinlets" : 8,
					"numoutlets" : 1,
					"outlettype" : [ "" ],
					"patching_rect" : [ 303.5, 429.0, 568.5, 22.0 ],
					"text" : "pack f f f f f f f f"
				}

			}
, 			{
				"box" : 				{
					"id" : "obj-18",
					"maxclass" : "newobj",
					"numinlets" : 1,
					"numoutlets" : 2,
					"outlettype" : [ "bang", "float" ],
					"patching_rect" : [ 628.5, 329.0, 29.5, 22.0 ],
					"text" : "t b f"
				}

			}
, 			{
				"box" : 				{
					"id" : "obj-17",
					"maxclass" : "newobj",
					"numinlets" : 1,
					"numoutlets" : 2,
					"outlettype" : [ "bang", "float" ],
					"patching_rect" : [ 549.5, 329.0, 29.5, 22.0 ],
					"text" : "t b f"
				}

			}
, 			{
				"box" : 				{
					"id" : "obj-16",
					"maxclass" : "newobj",
					"numinlets" : 1,
					"numoutlets" : 2,
					"outlettype" : [ "bang", "float" ],
					"patching_rect" : [ 470.5, 329.0, 29.5, 22.0 ],
					"text" : "t b f"
				}

			}
, 			{
				"box" : 				{
					"id" : "obj-15",
					"maxclass" : "newobj",
					"numinlets" : 1,
					"numoutlets" : 2,
					"outlettype" : [ "bang", "float" ],
					"patching_rect" : [ 392.5, 329.0, 29.5, 22.0 ],
					"text" : "t b f"
				}

			}
, 			{
				"box" : 				{
					"id" : "obj-14",
					"maxclass" : "newobj",
					"numinlets" : 1,
					"numoutlets" : 2,
					"outlettype" : [ "bang", "float" ],
					"patching_rect" : [ 314.5, 329.0, 29.5, 22.0 ],
					"text" : "t b f"
				}

			}
, 			{
				"box" : 				{
					"id" : "obj-12",
					"maxclass" : "newobj",
					"numinlets" : 2,
					"numoutlets" : 1,
					"outlettype" : [ "float" ],
					"patching_rect" : [ 617.5, 379.0, 40.0, 22.0 ],
					"text" : "* 0."
				}

			}
, 			{
				"box" : 				{
					"id" : "obj-10",
					"maxclass" : "newobj",
					"numinlets" : 2,
					"numoutlets" : 1,
					"outlettype" : [ "float" ],
					"patching_rect" : [ 539.5, 379.0, 39.0, 22.0 ],
					"text" : "* 0."
				}

			}
, 			{
				"box" : 				{
					"id" : "obj-8",
					"maxclass" : "newobj",
					"numinlets" : 2,
					"numoutlets" : 1,
					"outlettype" : [ "float" ],
					"patching_rect" : [ 460.5, 379.0, 39.5, 22.0 ],
					"text" : "* 0."
				}

			}
, 			{
				"box" : 				{
					"id" : "obj-6",
					"maxclass" : "newobj",
					"numinlets" : 2,
					"numoutlets" : 1,
					"outlettype" : [ "float" ],
					"patching_rect" : [ 382.5, 379.0, 39.5, 22.0 ],
					"text" : "* 0."
				}

			}
, 			{
				"box" : 				{
					"id" : "obj-5",
					"maxclass" : "newobj",
					"numinlets" : 2,
					"numoutlets" : 1,
					"outlettype" : [ "float" ],
					"patching_rect" : [ 303.5, 379.0, 40.0, 22.0 ],
					"text" : "* 0."
				}

			}
, 			{
				"box" : 				{
					"id" : "obj-4",
					"maxclass" : "newobj",
					"numinlets" : 1,
					"numoutlets" : 8,
					"outlettype" : [ "float", "float", "float", "float", "float", "float", "float", "float" ],
					"patching_rect" : [ 304.0, 118.0, 568.5, 22.0 ],
					"text" : "unpack f f f f f f f f"
				}

			}
, 			{
				"box" : 				{
					"comment" : "(integer list) Turing Machine's bits",
					"id" : "obj-1",
					"index" : 0,
					"maxclass" : "inlet",
					"numinlets" : 0,
					"numoutlets" : 1,
					"outlettype" : [ "" ],
					"patching_rect" : [ 304.0, 18.0, 30.0, 30.0 ]
				}

			}
, 			{
				"box" : 				{
					"angle" : 270.0,
					"bgcolor" : [ 0.313725490196078, 0.345098039215686, 0.36078431372549, 1.0 ],
					"id" : "obj-24",
					"maxclass" : "panel",
					"mode" : 0,
					"numinlets" : 1,
					"numoutlets" : 0,
					"patching_rect" : [ 87.0, 371.0, 128.0, 128.0 ],
					"presentation" : 1,
					"presentation_rect" : [ 0.0, 0.0, 270.0, 416.0 ],
					"proportion" : 0.5,
					"rounded" : 0
				}

			}
 ],
		"lines" : [ 			{
				"patchline" : 				{
					"destination" : [ "obj-23", 0 ],
					"midpoints" : [ 313.5, 72.0, 915.5, 72.0 ],
					"order" : 0,
					"source" : [ "obj-1", 0 ]
				}

			}
, 			{
				"patchline" : 				{
					"destination" : [ "obj-4", 0 ],
					"order" : 1,
					"source" : [ "obj-1", 0 ]
				}

			}
, 			{
				"patchline" : 				{
					"destination" : [ "obj-19", 3 ],
					"source" : [ "obj-10", 0 ]
				}

			}
, 			{
				"patchline" : 				{
					"destination" : [ "obj-19", 4 ],
					"source" : [ "obj-12", 0 ]
				}

			}
, 			{
				"patchline" : 				{
					"destination" : [ "obj-5", 1 ],
					"source" : [ "obj-14", 1 ]
				}

			}
, 			{
				"patchline" : 				{
					"destination" : [ "obj-5", 0 ],
					"midpoints" : [ 324.0, 366.0, 313.0, 366.0 ],
					"source" : [ "obj-14", 0 ]
				}

			}
, 			{
				"patchline" : 				{
					"destination" : [ "obj-6", 1 ],
					"source" : [ "obj-15", 1 ]
				}

			}
, 			{
				"patchline" : 				{
					"destination" : [ "obj-6", 0 ],
					"midpoints" : [ 402.0, 366.0, 392.0, 366.0 ],
					"source" : [ "obj-15", 0 ]
				}

			}
, 			{
				"patchline" : 				{
					"destination" : [ "obj-8", 1 ],
					"source" : [ "obj-16", 1 ]
				}

			}
, 			{
				"patchline" : 				{
					"destination" : [ "obj-8", 0 ],
					"midpoints" : [ 480.0, 366.0, 470.0, 366.0 ],
					"source" : [ "obj-16", 0 ]
				}

			}
, 			{
				"patchline" : 				{
					"destination" : [ "obj-10", 1 ],
					"source" : [ "obj-17", 1 ]
				}

			}
, 			{
				"patchline" : 				{
					"destination" : [ "obj-10", 0 ],
					"midpoints" : [ 559.0, 366.0, 549.0, 366.0 ],
					"source" : [ "obj-17", 0 ]
				}

			}
, 			{
				"patchline" : 				{
					"destination" : [ "obj-12", 1 ],
					"source" : [ "obj-18", 1 ]
				}

			}
, 			{
				"patchline" : 				{
					"destination" : [ "obj-12", 0 ],
					"midpoints" : [ 638.0, 366.0, 627.0, 366.0 ],
					"source" : [ "obj-18", 0 ]
				}

			}
, 			{
				"patchline" : 				{
					"destination" : [ "obj-20", 0 ],
					"source" : [ "obj-19", 0 ]
				}

			}
, 			{
				"patchline" : 				{
					"destination" : [ "obj-14", 0 ],
					"source" : [ "obj-2", 0 ]
				}

			}
, 			{
				"patchline" : 				{
					"destination" : [ "obj-21", 0 ],
					"source" : [ "obj-20", 0 ]
				}

			}
, 			{
				"patchline" : 				{
					"destination" : [ "obj-30", 0 ],
					"order" : 1,
					"source" : [ "obj-21", 0 ]
				}

			}
, 			{
				"patchline" : 				{
					"destination" : [ "obj-71", 0 ],
					"midpoints" : [ 313.0, 601.0, 553.0, 601.0 ],
					"order" : 0,
					"source" : [ "obj-21", 0 ]
				}

			}
, 			{
				"patchline" : 				{
					"destination" : [ "obj-2", 0 ],
					"midpoints" : [ 202.5, 150.0, 324.0, 150.0 ],
					"order" : 7,
					"source" : [ "obj-25", 0 ]
				}

			}
, 			{
				"patchline" : 				{
					"destination" : [ "obj-42", 0 ],
					"midpoints" : [ 202.5, 150.0, 402.0, 150.0 ],
					"order" : 6,
					"source" : [ "obj-25", 0 ]
				}

			}
, 			{
				"patchline" : 				{
					"destination" : [ "obj-43", 0 ],
					"midpoints" : [ 202.5, 150.0, 480.0, 150.0 ],
					"order" : 5,
					"source" : [ "obj-25", 0 ]
				}

			}
, 			{
				"patchline" : 				{
					"destination" : [ "obj-45", 0 ],
					"midpoints" : [ 202.5, 150.0, 559.0, 150.0 ],
					"order" : 4,
					"source" : [ "obj-25", 0 ]
				}

			}
, 			{
				"patchline" : 				{
					"destination" : [ "obj-46", 0 ],
					"midpoints" : [ 202.5, 150.0, 638.0, 150.0 ],
					"order" : 3,
					"source" : [ "obj-25", 0 ]
				}

			}
, 			{
				"patchline" : 				{
					"destination" : [ "obj-62", 0 ],
					"midpoints" : [ 202.5, 150.0, 291.0, 150.0, 291.0, 105.0, 882.0, 105.0, 882.0, 150.0, 873.5, 150.0 ],
					"order" : 0,
					"source" : [ "obj-25", 0 ]
				}

			}
, 			{
				"patchline" : 				{
					"destination" : [ "obj-63", 0 ],
					"midpoints" : [ 202.5, 150.0, 794.0, 150.0 ],
					"order" : 1,
					"source" : [ "obj-25", 0 ]
				}

			}
, 			{
				"patchline" : 				{
					"destination" : [ "obj-64", 0 ],
					"midpoints" : [ 202.5, 150.0, 715.5, 150.0 ],
					"order" : 2,
					"source" : [ "obj-25", 0 ]
				}

			}
, 			{
				"patchline" : 				{
					"destination" : [ "obj-31", 0 ],
					"source" : [ "obj-26", 0 ]
				}

			}
, 			{
				"patchline" : 				{
					"destination" : [ "obj-26", 0 ],
					"order" : 1,
					"source" : [ "obj-27", 0 ]
				}

			}
, 			{
				"patchline" : 				{
					"destination" : [ "obj-79", 0 ],
					"midpoints" : [ 366.0, 519.0, 606.0, 519.0 ],
					"order" : 0,
					"source" : [ "obj-27", 0 ]
				}

			}
, 			{
				"patchline" : 				{
					"destination" : [ "obj-29", 0 ],
					"order" : 1,
					"source" : [ "obj-28", 0 ]
				}

			}
, 			{
				"patchline" : 				{
					"destination" : [ "obj-78", 0 ],
					"midpoints" : [ 450.0, 519.0, 690.0, 519.0 ],
					"order" : 0,
					"source" : [ "obj-28", 0 ]
				}

			}
, 			{
				"patchline" : 				{
					"destination" : [ "obj-33", 0 ],
					"midpoints" : [ 450.0, 597.0, 501.0, 597.0, 501.0, 642.0, 423.0, 642.0 ],
					"source" : [ "obj-29", 0 ]
				}

			}
, 			{
				"patchline" : 				{
					"destination" : [ "obj-36", 0 ],
					"source" : [ "obj-30", 0 ]
				}

			}
, 			{
				"patchline" : 				{
					"destination" : [ "obj-30", 1 ],
					"source" : [ "obj-31", 0 ]
				}

			}
, 			{
				"patchline" : 				{
					"destination" : [ "obj-33", 0 ],
					"source" : [ "obj-31", 1 ]
				}

			}
, 			{
				"patchline" : 				{
					"destination" : [ "obj-34", 0 ],
					"source" : [ "obj-31", 2 ]
				}

			}
, 			{
				"patchline" : 				{
					"destination" : [ "obj-35", 0 ],
					"source" : [ "obj-33", 0 ]
				}

			}
, 			{
				"patchline" : 				{
					"destination" : [ "obj-35", 1 ],
					"source" : [ "obj-34", 0 ]
				}

			}
, 			{
				"patchline" : 				{
					"destination" : [ "obj-36", 1 ],
					"source" : [ "obj-35", 0 ]
				}

			}
, 			{
				"patchline" : 				{
					"destination" : [ "obj-22", 0 ],
					"source" : [ "obj-36", 0 ]
				}

			}
, 			{
				"patchline" : 				{
					"destination" : [ "obj-10", 0 ],
					"order" : 0,
					"source" : [ "obj-4", 3 ]
				}

			}
, 			{
				"patchline" : 				{
					"destination" : [ "obj-12", 0 ],
					"order" : 0,
					"source" : [ "obj-4", 4 ]
				}

			}
, 			{
				"patchline" : 				{
					"destination" : [ "obj-3", 0 ],
					"order" : 1,
					"source" : [ "obj-4", 0 ]
				}

			}
, 			{
				"patchline" : 				{
					"destination" : [ "obj-5", 0 ],
					"order" : 0,
					"source" : [ "obj-4", 0 ]
				}

			}
, 			{
				"patchline" : 				{
					"destination" : [ "obj-6", 0 ],
					"order" : 0,
					"source" : [ "obj-4", 1 ]
				}

			}
, 			{
				"patchline" : 				{
					"destination" : [ "obj-68", 0 ],
					"order" : 0,
					"source" : [ "obj-4", 7 ]
				}

			}
, 			{
				"patchline" : 				{
					"destination" : [ "obj-69", 0 ],
					"order" : 0,
					"source" : [ "obj-4", 6 ]
				}

			}
, 			{
				"patchline" : 				{
					"destination" : [ "obj-7", 0 ],
					"order" : 1,
					"source" : [ "obj-4", 3 ]
				}

			}
, 			{
				"patchline" : 				{
					"destination" : [ "obj-70", 0 ],
					"order" : 0,
					"source" : [ "obj-4", 5 ]
				}

			}
, 			{
				"patchline" : 				{
					"destination" : [ "obj-8", 0 ],
					"order" : 0,
					"source" : [ "obj-4", 2 ]
				}

			}
, 			{
				"patchline" : 				{
					"destination" : [ "obj-81", 0 ],
					"order" : 1,
					"source" : [ "obj-4", 6 ]
				}

			}
, 			{
				"patchline" : 				{
					"destination" : [ "obj-82", 0 ],
					"order" : 1,
					"source" : [ "obj-4", 4 ]
				}

			}
, 			{
				"patchline" : 				{
					"destination" : [ "obj-83", 0 ],
					"order" : 1,
					"source" : [ "obj-4", 2 ]
				}

			}
, 			{
				"patchline" : 				{
					"destination" : [ "obj-84", 0 ],
					"order" : 1,
					"source" : [ "obj-4", 1 ]
				}

			}
, 			{
				"patchline" : 				{
					"destination" : [ "obj-85", 0 ],
					"order" : 1,
					"source" : [ "obj-4", 7 ]
				}

			}
, 			{
				"patchline" : 				{
					"destination" : [ "obj-9", 0 ],
					"order" : 1,
					"source" : [ "obj-4", 5 ]
				}

			}
, 			{
				"patchline" : 				{
					"destination" : [ "obj-15", 0 ],
					"source" : [ "obj-42", 0 ]
				}

			}
, 			{
				"patchline" : 				{
					"destination" : [ "obj-16", 0 ],
					"source" : [ "obj-43", 0 ]
				}

			}
, 			{
				"patchline" : 				{
					"destination" : [ "obj-17", 0 ],
					"source" : [ "obj-45", 0 ]
				}

			}
, 			{
				"patchline" : 				{
					"destination" : [ "obj-18", 0 ],
					"source" : [ "obj-46", 0 ]
				}

			}
, 			{
				"patchline" : 				{
					"destination" : [ "obj-19", 0 ],
					"source" : [ "obj-5", 0 ]
				}

			}
, 			{
				"patchline" : 				{
					"destination" : [ "obj-19", 1 ],
					"source" : [ "obj-6", 0 ]
				}

			}
, 			{
				"patchline" : 				{
					"destination" : [ "obj-65", 0 ],
					"source" : [ "obj-62", 0 ]
				}

			}
, 			{
				"patchline" : 				{
					"destination" : [ "obj-66", 0 ],
					"source" : [ "obj-63", 0 ]
				}

			}
, 			{
				"patchline" : 				{
					"destination" : [ "obj-67", 0 ],
					"source" : [ "obj-64", 0 ]
				}

			}
, 			{
				"patchline" : 				{
					"destination" : [ "obj-68", 1 ],
					"source" : [ "obj-65", 1 ]
				}

			}
, 			{
				"patchline" : 				{
					"destination" : [ "obj-68", 0 ],
					"midpoints" : [ 873.5, 366.0, 862.5, 366.0 ],
					"source" : [ "obj-65", 0 ]
				}

			}
, 			{
				"patchline" : 				{
					"destination" : [ "obj-69", 1 ],
					"source" : [ "obj-66", 1 ]
				}

			}
, 			{
				"patchline" : 				{
					"destination" : [ "obj-69", 0 ],
					"midpoints" : [ 794.0, 366.0, 784.0, 366.0 ],
					"source" : [ "obj-66", 0 ]
				}

			}
, 			{
				"patchline" : 				{
					"destination" : [ "obj-70", 1 ],
					"source" : [ "obj-67", 1 ]
				}

			}
, 			{
				"patchline" : 				{
					"destination" : [ "obj-70", 0 ],
					"midpoints" : [ 715.5, 366.0, 705.5, 366.0 ],
					"source" : [ "obj-67", 0 ]
				}

			}
, 			{
				"patchline" : 				{
					"destination" : [ "obj-19", 7 ],
					"source" : [ "obj-68", 0 ]
				}

			}
, 			{
				"patchline" : 				{
					"destination" : [ "obj-19", 6 ],
					"source" : [ "obj-69", 0 ]
				}

			}
, 			{
				"patchline" : 				{
					"destination" : [ "obj-19", 5 ],
					"source" : [ "obj-70", 0 ]
				}

			}
, 			{
				"patchline" : 				{
					"destination" : [ "obj-77", 0 ],
					"source" : [ "obj-71", 0 ]
				}

			}
, 			{
				"patchline" : 				{
					"destination" : [ "obj-80", 0 ],
					"source" : [ "obj-72", 0 ]
				}

			}
, 			{
				"patchline" : 				{
					"destination" : [ "obj-72", 1 ],
					"source" : [ "obj-73", 0 ]
				}

			}
, 			{
				"patchline" : 				{
					"destination" : [ "obj-73", 1 ],
					"source" : [ "obj-74", 0 ]
				}

			}
, 			{
				"patchline" : 				{
					"destination" : [ "obj-73", 0 ],
					"source" : [ "obj-75", 0 ]
				}

			}
, 			{
				"patchline" : 				{
					"destination" : [ "obj-74", 0 ],
					"source" : [ "obj-76", 2 ]
				}

			}
, 			{
				"patchline" : 				{
					"destination" : [ "obj-75", 0 ],
					"source" : [ "obj-76", 1 ]
				}

			}
, 			{
				"patchline" : 				{
					"destination" : [ "obj-77", 1 ],
					"source" : [ "obj-76", 0 ]
				}

			}
, 			{
				"patchline" : 				{
					"destination" : [ "obj-72", 0 ],
					"source" : [ "obj-77", 0 ]
				}

			}
, 			{
				"patchline" : 				{
					"destination" : [ "obj-75", 0 ],
					"midpoints" : [ 690.0, 597.0, 741.0, 597.0, 741.0, 642.0, 663.0, 642.0 ],
					"source" : [ "obj-78", 0 ]
				}

			}
, 			{
				"patchline" : 				{
					"destination" : [ "obj-76", 0 ],
					"source" : [ "obj-79", 0 ]
				}

			}
, 			{
				"patchline" : 				{
					"destination" : [ "obj-19", 2 ],
					"source" : [ "obj-8", 0 ]
				}

			}
 ],
		"parameters" : 		{
			"obj-26" : [ "scale", "scale", 0 ],
			"obj-29" : [ "offset", "offset", 0 ],
			"obj-78" : [ "offset[1]", "offset", 0 ],
			"obj-79" : [ "scale[1]", "scale", 0 ],
			"parameterbanks" : 			{
				"0" : 				{
					"index" : 0,
					"name" : "",
					"parameters" : [ "-", "-", "-", "-", "-", "-", "-", "-" ]
				}

			}
,
			"inherited_shortname" : 1
		}
,
		"dependency_cache" : [  ],
		"autosave" : 0
	}

}
