{
	"patcher" : 	{
		"fileversion" : 1,
		"appversion" : 		{
			"major" : 8,
			"minor" : 6,
			"revision" : 0,
			"architecture" : "x64",
			"modernui" : 1
		}
,
		"classnamespace" : "box",
		"rect" : [ 1954.0, 77.0, 1478.0, 921.0 ],
		"bglocked" : 0,
		"openinpresentation" : 1,
		"default_fontsize" : 12.0,
		"default_fontface" : 0,
		"default_fontname" : "Arial",
		"gridonopen" : 1,
		"gridsize" : [ 15.0, 15.0 ],
		"gridsnaponopen" : 1,
		"objectsnaponopen" : 1,
		"statusbarvisible" : 2,
		"toolbarvisible" : 1,
		"lefttoolbarpinned" : 0,
		"toptoolbarpinned" : 0,
		"righttoolbarpinned" : 0,
		"bottomtoolbarpinned" : 0,
		"toolbars_unpinned_last_save" : 0,
		"tallnewobj" : 0,
		"boxanimatetime" : 200,
		"enablehscroll" : 1,
		"enablevscroll" : 1,
		"devicewidth" : 0.0,
		"description" : "",
		"digest" : "",
		"tags" : "",
		"style" : "",
		"subpatcher_template" : "",
		"assistshowspatchername" : 0,
		"boxes" : [ 			{
				"box" : 				{
					"bgcolor" : [ 0.313725490196078, 0.345098039215686, 0.36078431372549, 1.0 ],
					"id" : "obj-32",
					"maxclass" : "led",
					"numinlets" : 1,
					"numoutlets" : 1,
					"offcolor" : [ 0.129411764705882, 0.129411764705882, 0.129411764705882, 1.0 ],
					"oncolor" : [ 0.945098039215686, 0.407843137254902, 0.368627450980392, 1.0 ],
					"outlettype" : [ "int" ],
					"parameter_enable" : 0,
					"patching_rect" : [ 601.5, 198.0, 24.0, 24.0 ],
					"presentation" : 1,
					"presentation_rect" : [ 226.0, 101.0, 24.0, 24.0 ]
				}

			}
, 			{
				"box" : 				{
					"bgcolor" : [ 0.313725490196078, 0.345098039215686, 0.36078431372549, 1.0 ],
					"id" : "obj-37",
					"maxclass" : "led",
					"numinlets" : 1,
					"numoutlets" : 1,
					"offcolor" : [ 0.129411764705882, 0.129411764705882, 0.129411764705882, 1.0 ],
					"oncolor" : [ 0.945098039215686, 0.407843137254902, 0.368627450980392, 1.0 ],
					"outlettype" : [ "int" ],
					"parameter_enable" : 0,
					"patching_rect" : [ 523.0, 198.0, 24.0, 24.0 ],
					"presentation" : 1,
					"presentation_rect" : [ 174.0, 101.0, 24.0, 24.0 ]
				}

			}
, 			{
				"box" : 				{
					"bgcolor" : [ 0.313725490196078, 0.345098039215686, 0.36078431372549, 1.0 ],
					"id" : "obj-39",
					"maxclass" : "led",
					"numinlets" : 1,
					"numoutlets" : 1,
					"offcolor" : [ 0.129411764705882, 0.129411764705882, 0.129411764705882, 1.0 ],
					"oncolor" : [ 0.945098039215686, 0.407843137254902, 0.368627450980392, 1.0 ],
					"outlettype" : [ "int" ],
					"parameter_enable" : 0,
					"patching_rect" : [ 445.0, 198.0, 24.0, 24.0 ],
					"presentation" : 1,
					"presentation_rect" : [ 123.0, 101.0, 24.0, 24.0 ]
				}

			}
, 			{
				"box" : 				{
					"bgcolor" : [ 0.313725490196078, 0.345098039215686, 0.36078431372549, 1.0 ],
					"id" : "obj-40",
					"maxclass" : "led",
					"numinlets" : 1,
					"numoutlets" : 1,
					"offcolor" : [ 0.129411764705882, 0.129411764705882, 0.129411764705882, 1.0 ],
					"oncolor" : [ 0.945098039215686, 0.407843137254902, 0.368627450980392, 1.0 ],
					"outlettype" : [ "int" ],
					"parameter_enable" : 0,
					"patching_rect" : [ 366.5, 198.0, 24.0, 24.0 ],
					"presentation" : 1,
					"presentation_rect" : [ 70.0, 101.0, 24.0, 24.0 ]
				}

			}
, 			{
				"box" : 				{
					"bgcolor" : [ 0.313725490196078, 0.345098039215686, 0.36078431372549, 1.0 ],
					"id" : "obj-41",
					"maxclass" : "led",
					"numinlets" : 1,
					"numoutlets" : 1,
					"offcolor" : [ 0.129411764705882, 0.129411764705882, 0.129411764705882, 1.0 ],
					"oncolor" : [ 0.945098039215686, 0.407843137254902, 0.368627450980392, 1.0 ],
					"outlettype" : [ "int" ],
					"parameter_enable" : 0,
					"patching_rect" : [ 285.0, 195.0, 24.0, 24.0 ],
					"presentation" : 1,
					"presentation_rect" : [ 18.0, 101.0, 24.0, 24.0 ]
				}

			}
, 			{
				"box" : 				{
					"id" : "obj-44",
					"linecount" : 2,
					"maxclass" : "comment",
					"numinlets" : 1,
					"numoutlets" : 0,
					"patching_rect" : [ 60.0, 527.5, 151.0, 33.0 ],
					"presentation" : 1,
					"presentation_linecount" : 2,
					"presentation_rect" : [ 66.5, 213.0, 137.0, 33.0 ],
					"text" : "resize bpatcher window to 270×194 for best fit",
					"textjustification" : 1
				}

			}
, 			{
				"box" : 				{
					"fontsize" : 24.0,
					"id" : "obj-38",
					"maxclass" : "comment",
					"numinlets" : 1,
					"numoutlets" : 0,
					"patching_rect" : [ -21.0, 279.0, 287.0, 33.0 ],
					"presentation" : 1,
					"presentation_rect" : [ 0.0, 6.0, 269.0, 33.0 ],
					"text" : "TURING : VOLTS",
					"textcolor" : [ 0.831372549019608, 0.831372549019608, 0.831372549019608, 1.0 ],
					"textjustification" : 1
				}

			}
, 			{
				"box" : 				{
					"id" : "obj-36",
					"maxclass" : "newobj",
					"numinlets" : 2,
					"numoutlets" : 1,
					"outlettype" : [ "float" ],
					"patching_rect" : [ 303.5, 674.0, 129.0, 22.0 ],
					"text" : "+ 0."
				}

			}
, 			{
				"box" : 				{
					"id" : "obj-35",
					"maxclass" : "newobj",
					"numinlets" : 2,
					"numoutlets" : 1,
					"outlettype" : [ "float" ],
					"patching_rect" : [ 413.5, 625.0, 75.5, 22.0 ],
					"text" : "* 0.5"
				}

			}
, 			{
				"box" : 				{
					"id" : "obj-34",
					"maxclass" : "newobj",
					"numinlets" : 2,
					"numoutlets" : 1,
					"outlettype" : [ "float" ],
					"patching_rect" : [ 469.5, 578.0, 29.5, 22.0 ],
					"text" : "!- 1."
				}

			}
, 			{
				"box" : 				{
					"format" : 6,
					"id" : "obj-33",
					"maxclass" : "flonum",
					"maximum" : 1.0,
					"minimum" : 0.0,
					"numinlets" : 1,
					"numoutlets" : 2,
					"outlettype" : [ "", "bang" ],
					"parameter_enable" : 0,
					"patching_rect" : [ 413.5, 578.0, 50.0, 22.0 ]
				}

			}
, 			{
				"box" : 				{
					"id" : "obj-31",
					"maxclass" : "newobj",
					"numinlets" : 1,
					"numoutlets" : 3,
					"outlettype" : [ "float", "bang", "float" ],
					"patching_rect" : [ 356.5, 533.0, 132.0, 22.0 ],
					"text" : "t f b f"
				}

			}
, 			{
				"box" : 				{
					"id" : "obj-30",
					"maxclass" : "newobj",
					"numinlets" : 2,
					"numoutlets" : 1,
					"outlettype" : [ "float" ],
					"patching_rect" : [ 303.5, 578.0, 72.0, 22.0 ],
					"text" : "* 1."
				}

			}
, 			{
				"box" : 				{
					"activedialcolor" : [ 0.427450980392157, 0.650980392156863, 0.776470588235294, 1.0 ],
					"activefgdialcolor" : [ 0.831372549019608, 0.831372549019608, 0.831372549019608, 1.0 ],
					"activeneedlecolor" : [ 0.831372549019608, 0.831372549019608, 0.831372549019608, 1.0 ],
					"dialcolor" : [ 0.129411764705882, 0.129411764705882, 0.129411764705882, 1.0 ],
					"fgdialcolor" : [ 0.129411764705882, 0.129411764705882, 0.129411764705882, 1.0 ],
					"fontname" : "Arial",
					"fontsize" : 12.0,
					"id" : "obj-29",
					"maxclass" : "live.dial",
					"needlecolor" : [ 0.129411764705882, 0.129411764705882, 0.129411764705882, 1.0 ],
					"numinlets" : 1,
					"numoutlets" : 2,
					"outlettype" : [ "", "float" ],
					"parameter_enable" : 1,
					"patching_rect" : [ 440.5, 456.0, 52.0, 52.0 ],
					"presentation" : 1,
					"presentation_rect" : [ 160.0, 132.0, 52.0, 52.0 ],
					"saved_attribute_attributes" : 					{
						"activedialcolor" : 						{
							"expression" : ""
						}
,
						"activefgdialcolor" : 						{
							"expression" : ""
						}
,
						"activeneedlecolor" : 						{
							"expression" : ""
						}
,
						"dialcolor" : 						{
							"expression" : ""
						}
,
						"fgdialcolor" : 						{
							"expression" : ""
						}
,
						"needlecolor" : 						{
							"expression" : ""
						}
,
						"textcolor" : 						{
							"expression" : ""
						}
,
						"tricolor" : 						{
							"expression" : ""
						}
,
						"valueof" : 						{
							"parameter_longname" : "offset",
							"parameter_mmax" : 1.0,
							"parameter_shortname" : "offset",
							"parameter_type" : 0,
							"parameter_unitstyle" : 1
						}

					}
,
					"textcolor" : [ 0.831372549019608, 0.831372549019608, 0.831372549019608, 1.0 ],
					"tricolor" : [ 0.831372549019608, 0.831372549019608, 0.831372549019608, 1.0 ],
					"varname" : "offset"
				}

			}
, 			{
				"box" : 				{
					"id" : "obj-28",
					"maxclass" : "newobj",
					"numinlets" : 1,
					"numoutlets" : 1,
					"outlettype" : [ "" ],
					"patching_rect" : [ 440.5, 402.0, 73.0, 22.0 ],
					"text" : "loadmess 0."
				}

			}
, 			{
				"box" : 				{
					"id" : "obj-27",
					"maxclass" : "newobj",
					"numinlets" : 1,
					"numoutlets" : 1,
					"outlettype" : [ "" ],
					"patching_rect" : [ 356.5, 402.0, 73.0, 22.0 ],
					"text" : "loadmess 1."
				}

			}
, 			{
				"box" : 				{
					"activedialcolor" : [ 0.427450980392157, 0.650980392156863, 0.776470588235294, 1.0 ],
					"activefgdialcolor" : [ 0.831372549019608, 0.831372549019608, 0.831372549019608, 1.0 ],
					"activeneedlecolor" : [ 0.831372549019608, 0.831372549019608, 0.831372549019608, 1.0 ],
					"dialcolor" : [ 0.129411764705882, 0.129411764705882, 0.129411764705882, 1.0 ],
					"fgdialcolor" : [ 0.129411764705882, 0.129411764705882, 0.129411764705882, 1.0 ],
					"fontname" : "Arial",
					"fontsize" : 12.0,
					"id" : "obj-26",
					"maxclass" : "live.dial",
					"needlecolor" : [ 0.129411764705882, 0.129411764705882, 0.129411764705882, 1.0 ],
					"numinlets" : 1,
					"numoutlets" : 2,
					"outlettype" : [ "", "float" ],
					"parameter_enable" : 1,
					"patching_rect" : [ 356.5, 456.0, 52.0, 52.0 ],
					"presentation" : 1,
					"presentation_rect" : [ 56.0, 132.0, 52.0, 52.0 ],
					"saved_attribute_attributes" : 					{
						"activedialcolor" : 						{
							"expression" : ""
						}
,
						"activefgdialcolor" : 						{
							"expression" : ""
						}
,
						"activeneedlecolor" : 						{
							"expression" : ""
						}
,
						"dialcolor" : 						{
							"expression" : ""
						}
,
						"fgdialcolor" : 						{
							"expression" : ""
						}
,
						"needlecolor" : 						{
							"expression" : ""
						}
,
						"textcolor" : 						{
							"expression" : ""
						}
,
						"tricolor" : 						{
							"expression" : ""
						}
,
						"valueof" : 						{
							"parameter_longname" : "scale",
							"parameter_mmax" : 1.0,
							"parameter_shortname" : "scale",
							"parameter_type" : 0,
							"parameter_unitstyle" : 1
						}

					}
,
					"textcolor" : [ 0.831372549019608, 0.831372549019608, 0.831372549019608, 1.0 ],
					"tricolor" : [ 0.831372549019608, 0.831372549019608, 0.831372549019608, 1.0 ],
					"varname" : "scale"
				}

			}
, 			{
				"box" : 				{
					"id" : "obj-25",
					"maxclass" : "newobj",
					"numinlets" : 1,
					"numoutlets" : 1,
					"outlettype" : [ "" ],
					"patching_rect" : [ 193.0, 118.0, 80.0, 22.0 ],
					"text" : "loadmess 0.5"
				}

			}
, 			{
				"box" : 				{
					"comment" : "(integer list) Turing Machine's bits (pass-through)",
					"id" : "obj-23",
					"index" : 0,
					"maxclass" : "outlet",
					"numinlets" : 1,
					"numoutlets" : 0,
					"patching_rect" : [ 693.5, 509.0, 30.0, 30.0 ]
				}

			}
, 			{
				"box" : 				{
					"comment" : "(float) output (0. – 1.)",
					"id" : "obj-22",
					"index" : 0,
					"maxclass" : "outlet",
					"numinlets" : 1,
					"numoutlets" : 0,
					"patching_rect" : [ 303.5, 729.0, 30.0, 30.0 ]
				}

			}
, 			{
				"box" : 				{
					"id" : "obj-21",
					"maxclass" : "newobj",
					"numinlets" : 2,
					"numoutlets" : 1,
					"outlettype" : [ "float" ],
					"patching_rect" : [ 303.5, 456.0, 33.0, 22.0 ],
					"text" : "* 0.2"
				}

			}
, 			{
				"box" : 				{
					"id" : "obj-20",
					"maxclass" : "newobj",
					"numinlets" : 2,
					"numoutlets" : 2,
					"outlettype" : [ "", "" ],
					"patching_rect" : [ 303.5, 402.0, 43.0, 22.0 ],
					"text" : "zl.sum"
				}

			}
, 			{
				"box" : 				{
					"id" : "obj-19",
					"maxclass" : "newobj",
					"numinlets" : 5,
					"numoutlets" : 1,
					"outlettype" : [ "" ],
					"patching_rect" : [ 303.5, 352.0, 333.0, 22.0 ],
					"text" : "pack f f f f f"
				}

			}
, 			{
				"box" : 				{
					"id" : "obj-18",
					"maxclass" : "newobj",
					"numinlets" : 1,
					"numoutlets" : 2,
					"outlettype" : [ "bang", "float" ],
					"patching_rect" : [ 628.5, 252.0, 29.5, 22.0 ],
					"text" : "t b f"
				}

			}
, 			{
				"box" : 				{
					"id" : "obj-17",
					"maxclass" : "newobj",
					"numinlets" : 1,
					"numoutlets" : 2,
					"outlettype" : [ "bang", "float" ],
					"patching_rect" : [ 549.5, 252.0, 29.5, 22.0 ],
					"text" : "t b f"
				}

			}
, 			{
				"box" : 				{
					"id" : "obj-16",
					"maxclass" : "newobj",
					"numinlets" : 1,
					"numoutlets" : 2,
					"outlettype" : [ "bang", "float" ],
					"patching_rect" : [ 470.5, 252.0, 29.5, 22.0 ],
					"text" : "t b f"
				}

			}
, 			{
				"box" : 				{
					"id" : "obj-15",
					"maxclass" : "newobj",
					"numinlets" : 1,
					"numoutlets" : 2,
					"outlettype" : [ "bang", "float" ],
					"patching_rect" : [ 392.5, 252.0, 29.5, 22.0 ],
					"text" : "t b f"
				}

			}
, 			{
				"box" : 				{
					"id" : "obj-14",
					"maxclass" : "newobj",
					"numinlets" : 1,
					"numoutlets" : 2,
					"outlettype" : [ "bang", "float" ],
					"patching_rect" : [ 314.5, 252.0, 29.5, 22.0 ],
					"text" : "t b f"
				}

			}
, 			{
				"box" : 				{
					"id" : "obj-12",
					"maxclass" : "newobj",
					"numinlets" : 2,
					"numoutlets" : 1,
					"outlettype" : [ "float" ],
					"patching_rect" : [ 617.5, 302.0, 40.0, 22.0 ],
					"text" : "* 0."
				}

			}
, 			{
				"box" : 				{
					"activedialcolor" : [ 0.427450980392157, 0.650980392156863, 0.776470588235294, 1.0 ],
					"activefgdialcolor" : [ 0.831372549019608, 0.831372549019608, 0.831372549019608, 1.0 ],
					"activeneedlecolor" : [ 0.831372549019608, 0.831372549019608, 0.831372549019608, 1.0 ],
					"appearance" : 3,
					"dialcolor" : [ 0.129411764705882, 0.129411764705882, 0.129411764705882, 1.0 ],
					"fgdialcolor" : [ 0.129411764705882, 0.129411764705882, 0.129411764705882, 1.0 ],
					"fontname" : "Arial",
					"fontsize" : 12.0,
					"id" : "obj-13",
					"maxclass" : "live.dial",
					"needlecolor" : [ 0.129411764705882, 0.129411764705882, 0.129411764705882, 1.0 ],
					"numinlets" : 1,
					"numoutlets" : 2,
					"outlettype" : [ "", "float" ],
					"parameter_enable" : 1,
					"patching_rect" : [ 628.5, 163.0, 50.0, 56.0 ],
					"presentation" : 1,
					"presentation_rect" : [ 213.0, 43.0, 50.0, 56.0 ],
					"saved_attribute_attributes" : 					{
						"activedialcolor" : 						{
							"expression" : ""
						}
,
						"activefgdialcolor" : 						{
							"expression" : ""
						}
,
						"activeneedlecolor" : 						{
							"expression" : ""
						}
,
						"dialcolor" : 						{
							"expression" : ""
						}
,
						"fgdialcolor" : 						{
							"expression" : ""
						}
,
						"needlecolor" : 						{
							"expression" : ""
						}
,
						"textcolor" : 						{
							"expression" : ""
						}
,
						"tricolor" : 						{
							"expression" : ""
						}
,
						"valueof" : 						{
							"parameter_longname" : "five",
							"parameter_mmax" : 1.0,
							"parameter_shortname" : "5",
							"parameter_type" : 0,
							"parameter_unitstyle" : 1
						}

					}
,
					"shownumber" : 0,
					"textcolor" : [ 0.831372549019608, 0.831372549019608, 0.831372549019608, 1.0 ],
					"tricolor" : [ 0.831372549019608, 0.831372549019608, 0.831372549019608, 1.0 ],
					"varname" : "five"
				}

			}
, 			{
				"box" : 				{
					"id" : "obj-10",
					"maxclass" : "newobj",
					"numinlets" : 2,
					"numoutlets" : 1,
					"outlettype" : [ "float" ],
					"patching_rect" : [ 539.5, 302.0, 39.0, 22.0 ],
					"text" : "* 0."
				}

			}
, 			{
				"box" : 				{
					"activedialcolor" : [ 0.427450980392157, 0.650980392156863, 0.776470588235294, 1.0 ],
					"activefgdialcolor" : [ 0.831372549019608, 0.831372549019608, 0.831372549019608, 1.0 ],
					"activeneedlecolor" : [ 0.831372549019608, 0.831372549019608, 0.831372549019608, 1.0 ],
					"appearance" : 3,
					"dialcolor" : [ 0.129411764705882, 0.129411764705882, 0.129411764705882, 1.0 ],
					"fgdialcolor" : [ 0.129411764705882, 0.129411764705882, 0.129411764705882, 1.0 ],
					"fontname" : "Arial",
					"fontsize" : 12.0,
					"id" : "obj-11",
					"maxclass" : "live.dial",
					"needlecolor" : [ 0.129411764705882, 0.129411764705882, 0.129411764705882, 1.0 ],
					"numinlets" : 1,
					"numoutlets" : 2,
					"outlettype" : [ "", "float" ],
					"parameter_enable" : 1,
					"patching_rect" : [ 549.5, 163.0, 50.0, 56.0 ],
					"presentation" : 1,
					"presentation_rect" : [ 161.0, 43.0, 50.0, 56.0 ],
					"saved_attribute_attributes" : 					{
						"activedialcolor" : 						{
							"expression" : ""
						}
,
						"activefgdialcolor" : 						{
							"expression" : ""
						}
,
						"activeneedlecolor" : 						{
							"expression" : ""
						}
,
						"dialcolor" : 						{
							"expression" : ""
						}
,
						"fgdialcolor" : 						{
							"expression" : ""
						}
,
						"needlecolor" : 						{
							"expression" : ""
						}
,
						"textcolor" : 						{
							"expression" : ""
						}
,
						"tricolor" : 						{
							"expression" : ""
						}
,
						"valueof" : 						{
							"parameter_longname" : "four",
							"parameter_mmax" : 1.0,
							"parameter_shortname" : "4",
							"parameter_type" : 0,
							"parameter_unitstyle" : 1
						}

					}
,
					"shownumber" : 0,
					"textcolor" : [ 0.831372549019608, 0.831372549019608, 0.831372549019608, 1.0 ],
					"tricolor" : [ 0.831372549019608, 0.831372549019608, 0.831372549019608, 1.0 ],
					"varname" : "four"
				}

			}
, 			{
				"box" : 				{
					"id" : "obj-8",
					"maxclass" : "newobj",
					"numinlets" : 2,
					"numoutlets" : 1,
					"outlettype" : [ "float" ],
					"patching_rect" : [ 460.5, 302.0, 39.5, 22.0 ],
					"text" : "* 0."
				}

			}
, 			{
				"box" : 				{
					"activedialcolor" : [ 0.427450980392157, 0.650980392156863, 0.776470588235294, 1.0 ],
					"activefgdialcolor" : [ 0.831372549019608, 0.831372549019608, 0.831372549019608, 1.0 ],
					"activeneedlecolor" : [ 0.831372549019608, 0.831372549019608, 0.831372549019608, 1.0 ],
					"appearance" : 3,
					"dialcolor" : [ 0.129411764705882, 0.129411764705882, 0.129411764705882, 1.0 ],
					"fgdialcolor" : [ 0.129411764705882, 0.129411764705882, 0.129411764705882, 1.0 ],
					"fontname" : "Arial",
					"fontsize" : 12.0,
					"id" : "obj-9",
					"maxclass" : "live.dial",
					"needlecolor" : [ 0.129411764705882, 0.129411764705882, 0.129411764705882, 1.0 ],
					"numinlets" : 1,
					"numoutlets" : 2,
					"outlettype" : [ "", "float" ],
					"parameter_enable" : 1,
					"patching_rect" : [ 471.0, 163.0, 50.0, 56.0 ],
					"presentation" : 1,
					"presentation_rect" : [ 109.0, 43.0, 50.0, 56.0 ],
					"saved_attribute_attributes" : 					{
						"activedialcolor" : 						{
							"expression" : ""
						}
,
						"activefgdialcolor" : 						{
							"expression" : ""
						}
,
						"activeneedlecolor" : 						{
							"expression" : ""
						}
,
						"dialcolor" : 						{
							"expression" : ""
						}
,
						"fgdialcolor" : 						{
							"expression" : ""
						}
,
						"needlecolor" : 						{
							"expression" : ""
						}
,
						"textcolor" : 						{
							"expression" : ""
						}
,
						"tricolor" : 						{
							"expression" : ""
						}
,
						"valueof" : 						{
							"parameter_longname" : "three",
							"parameter_mmax" : 1.0,
							"parameter_shortname" : "3",
							"parameter_type" : 0,
							"parameter_unitstyle" : 1
						}

					}
,
					"shownumber" : 0,
					"textcolor" : [ 0.831372549019608, 0.831372549019608, 0.831372549019608, 1.0 ],
					"tricolor" : [ 0.831372549019608, 0.831372549019608, 0.831372549019608, 1.0 ],
					"varname" : "three"
				}

			}
, 			{
				"box" : 				{
					"id" : "obj-6",
					"maxclass" : "newobj",
					"numinlets" : 2,
					"numoutlets" : 1,
					"outlettype" : [ "float" ],
					"patching_rect" : [ 382.5, 302.0, 39.5, 22.0 ],
					"text" : "* 0."
				}

			}
, 			{
				"box" : 				{
					"activedialcolor" : [ 0.427450980392157, 0.650980392156863, 0.776470588235294, 1.0 ],
					"activefgdialcolor" : [ 0.831372549019608, 0.831372549019608, 0.831372549019608, 1.0 ],
					"activeneedlecolor" : [ 0.831372549019608, 0.831372549019608, 0.831372549019608, 1.0 ],
					"appearance" : 3,
					"dialcolor" : [ 0.129411764705882, 0.129411764705882, 0.129411764705882, 1.0 ],
					"fgdialcolor" : [ 0.129411764705882, 0.129411764705882, 0.129411764705882, 1.0 ],
					"fontname" : "Arial",
					"fontsize" : 12.0,
					"id" : "obj-7",
					"maxclass" : "live.dial",
					"needlecolor" : [ 0.129411764705882, 0.129411764705882, 0.129411764705882, 1.0 ],
					"numinlets" : 1,
					"numoutlets" : 2,
					"outlettype" : [ "", "float" ],
					"parameter_enable" : 1,
					"patching_rect" : [ 393.0, 163.0, 50.0, 56.0 ],
					"presentation" : 1,
					"presentation_rect" : [ 57.0, 43.0, 50.0, 56.0 ],
					"saved_attribute_attributes" : 					{
						"activedialcolor" : 						{
							"expression" : ""
						}
,
						"activefgdialcolor" : 						{
							"expression" : ""
						}
,
						"activeneedlecolor" : 						{
							"expression" : ""
						}
,
						"dialcolor" : 						{
							"expression" : ""
						}
,
						"fgdialcolor" : 						{
							"expression" : ""
						}
,
						"needlecolor" : 						{
							"expression" : ""
						}
,
						"textcolor" : 						{
							"expression" : ""
						}
,
						"tricolor" : 						{
							"expression" : ""
						}
,
						"valueof" : 						{
							"parameter_longname" : "two",
							"parameter_mmax" : 1.0,
							"parameter_shortname" : "2",
							"parameter_type" : 0,
							"parameter_unitstyle" : 1
						}

					}
,
					"shownumber" : 0,
					"textcolor" : [ 0.831372549019608, 0.831372549019608, 0.831372549019608, 1.0 ],
					"tricolor" : [ 0.831372549019608, 0.831372549019608, 0.831372549019608, 1.0 ],
					"varname" : "two"
				}

			}
, 			{
				"box" : 				{
					"id" : "obj-5",
					"maxclass" : "newobj",
					"numinlets" : 2,
					"numoutlets" : 1,
					"outlettype" : [ "float" ],
					"patching_rect" : [ 303.5, 302.0, 40.0, 22.0 ],
					"text" : "* 0."
				}

			}
, 			{
				"box" : 				{
					"id" : "obj-4",
					"maxclass" : "newobj",
					"numinlets" : 1,
					"numoutlets" : 5,
					"outlettype" : [ "float", "float", "float", "float", "float" ],
					"patching_rect" : [ 304.0, 118.0, 333.0, 22.0 ],
					"text" : "unpack f f f f f"
				}

			}
, 			{
				"box" : 				{
					"activedialcolor" : [ 0.427450980392157, 0.650980392156863, 0.776470588235294, 1.0 ],
					"activefgdialcolor" : [ 0.831372549019608, 0.831372549019608, 0.831372549019608, 1.0 ],
					"activeneedlecolor" : [ 0.831372549019608, 0.831372549019608, 0.831372549019608, 1.0 ],
					"appearance" : 3,
					"dialcolor" : [ 0.129411764705882, 0.129411764705882, 0.129411764705882, 1.0 ],
					"fgdialcolor" : [ 0.129411764705882, 0.129411764705882, 0.129411764705882, 1.0 ],
					"fontname" : "Arial",
					"fontsize" : 12.0,
					"id" : "obj-3",
					"maxclass" : "live.dial",
					"needlecolor" : [ 0.129411764705882, 0.129411764705882, 0.129411764705882, 1.0 ],
					"numinlets" : 1,
					"numoutlets" : 2,
					"outlettype" : [ "", "float" ],
					"parameter_enable" : 1,
					"patching_rect" : [ 314.5, 163.0, 50.0, 56.0 ],
					"presentation" : 1,
					"presentation_rect" : [ 5.0, 43.0, 50.0, 56.0 ],
					"saved_attribute_attributes" : 					{
						"activedialcolor" : 						{
							"expression" : ""
						}
,
						"activefgdialcolor" : 						{
							"expression" : ""
						}
,
						"activeneedlecolor" : 						{
							"expression" : ""
						}
,
						"dialcolor" : 						{
							"expression" : ""
						}
,
						"fgdialcolor" : 						{
							"expression" : ""
						}
,
						"needlecolor" : 						{
							"expression" : ""
						}
,
						"textcolor" : 						{
							"expression" : ""
						}
,
						"tricolor" : 						{
							"expression" : ""
						}
,
						"valueof" : 						{
							"parameter_longname" : "one",
							"parameter_mmax" : 1.0,
							"parameter_shortname" : "1",
							"parameter_type" : 0,
							"parameter_unitstyle" : 1
						}

					}
,
					"shownumber" : 0,
					"textcolor" : [ 0.831372549019608, 0.831372549019608, 0.831372549019608, 1.0 ],
					"tricolor" : [ 0.831372549019608, 0.831372549019608, 0.831372549019608, 1.0 ],
					"varname" : "one"
				}

			}
, 			{
				"box" : 				{
					"id" : "obj-2",
					"maxclass" : "newobj",
					"numinlets" : 2,
					"numoutlets" : 2,
					"outlettype" : [ "", "" ],
					"patching_rect" : [ 304.0, 85.0, 55.0, 22.0 ],
					"text" : "zl.slice 5"
				}

			}
, 			{
				"box" : 				{
					"comment" : "(integer list) Turing Machine's bits",
					"id" : "obj-1",
					"index" : 0,
					"maxclass" : "inlet",
					"numinlets" : 0,
					"numoutlets" : 1,
					"outlettype" : [ "" ],
					"patching_rect" : [ 304.0, 18.0, 30.0, 30.0 ]
				}

			}
, 			{
				"box" : 				{
					"angle" : 270.0,
					"bgcolor" : [ 0.313725490196078, 0.345098039215686, 0.36078431372549, 1.0 ],
					"id" : "obj-24",
					"maxclass" : "panel",
					"mode" : 0,
					"numinlets" : 1,
					"numoutlets" : 0,
					"patching_rect" : [ 87.0, 371.0, 128.0, 128.0 ],
					"presentation" : 1,
					"presentation_rect" : [ 0.0, 0.0, 270.0, 194.0 ],
					"proportion" : 0.5,
					"rounded" : 0
				}

			}
 ],
		"lines" : [ 			{
				"patchline" : 				{
					"destination" : [ "obj-2", 0 ],
					"order" : 1,
					"source" : [ "obj-1", 0 ]
				}

			}
, 			{
				"patchline" : 				{
					"destination" : [ "obj-23", 0 ],
					"midpoints" : [ 313.5, 72.0, 703.0, 72.0 ],
					"order" : 0,
					"source" : [ "obj-1", 0 ]
				}

			}
, 			{
				"patchline" : 				{
					"destination" : [ "obj-19", 3 ],
					"source" : [ "obj-10", 0 ]
				}

			}
, 			{
				"patchline" : 				{
					"destination" : [ "obj-17", 0 ],
					"source" : [ "obj-11", 0 ]
				}

			}
, 			{
				"patchline" : 				{
					"destination" : [ "obj-19", 4 ],
					"source" : [ "obj-12", 0 ]
				}

			}
, 			{
				"patchline" : 				{
					"destination" : [ "obj-18", 0 ],
					"source" : [ "obj-13", 0 ]
				}

			}
, 			{
				"patchline" : 				{
					"destination" : [ "obj-5", 1 ],
					"source" : [ "obj-14", 1 ]
				}

			}
, 			{
				"patchline" : 				{
					"destination" : [ "obj-5", 0 ],
					"midpoints" : [ 324.0, 289.0, 313.0, 289.0 ],
					"source" : [ "obj-14", 0 ]
				}

			}
, 			{
				"patchline" : 				{
					"destination" : [ "obj-6", 1 ],
					"source" : [ "obj-15", 1 ]
				}

			}
, 			{
				"patchline" : 				{
					"destination" : [ "obj-6", 0 ],
					"midpoints" : [ 402.0, 289.0, 392.0, 289.0 ],
					"source" : [ "obj-15", 0 ]
				}

			}
, 			{
				"patchline" : 				{
					"destination" : [ "obj-8", 1 ],
					"source" : [ "obj-16", 1 ]
				}

			}
, 			{
				"patchline" : 				{
					"destination" : [ "obj-8", 0 ],
					"midpoints" : [ 480.0, 289.0, 470.0, 289.0 ],
					"source" : [ "obj-16", 0 ]
				}

			}
, 			{
				"patchline" : 				{
					"destination" : [ "obj-10", 1 ],
					"source" : [ "obj-17", 1 ]
				}

			}
, 			{
				"patchline" : 				{
					"destination" : [ "obj-10", 0 ],
					"midpoints" : [ 559.0, 289.0, 549.0, 289.0 ],
					"source" : [ "obj-17", 0 ]
				}

			}
, 			{
				"patchline" : 				{
					"destination" : [ "obj-12", 1 ],
					"source" : [ "obj-18", 1 ]
				}

			}
, 			{
				"patchline" : 				{
					"destination" : [ "obj-12", 0 ],
					"midpoints" : [ 638.0, 289.0, 627.0, 289.0 ],
					"source" : [ "obj-18", 0 ]
				}

			}
, 			{
				"patchline" : 				{
					"destination" : [ "obj-20", 0 ],
					"source" : [ "obj-19", 0 ]
				}

			}
, 			{
				"patchline" : 				{
					"destination" : [ "obj-4", 0 ],
					"source" : [ "obj-2", 0 ]
				}

			}
, 			{
				"patchline" : 				{
					"destination" : [ "obj-21", 0 ],
					"source" : [ "obj-20", 0 ]
				}

			}
, 			{
				"patchline" : 				{
					"destination" : [ "obj-30", 0 ],
					"source" : [ "obj-21", 0 ]
				}

			}
, 			{
				"patchline" : 				{
					"destination" : [ "obj-11", 0 ],
					"midpoints" : [ 202.5, 150.0, 559.0, 150.0 ],
					"order" : 1,
					"source" : [ "obj-25", 0 ]
				}

			}
, 			{
				"patchline" : 				{
					"destination" : [ "obj-13", 0 ],
					"midpoints" : [ 202.5, 150.0, 638.0, 150.0 ],
					"order" : 0,
					"source" : [ "obj-25", 0 ]
				}

			}
, 			{
				"patchline" : 				{
					"destination" : [ "obj-3", 0 ],
					"midpoints" : [ 202.5, 150.0, 324.0, 150.0 ],
					"order" : 4,
					"source" : [ "obj-25", 0 ]
				}

			}
, 			{
				"patchline" : 				{
					"destination" : [ "obj-7", 0 ],
					"midpoints" : [ 202.5, 150.0, 402.5, 150.0 ],
					"order" : 3,
					"source" : [ "obj-25", 0 ]
				}

			}
, 			{
				"patchline" : 				{
					"destination" : [ "obj-9", 0 ],
					"midpoints" : [ 202.5, 150.0, 480.5, 150.0 ],
					"order" : 2,
					"source" : [ "obj-25", 0 ]
				}

			}
, 			{
				"patchline" : 				{
					"destination" : [ "obj-31", 0 ],
					"source" : [ "obj-26", 0 ]
				}

			}
, 			{
				"patchline" : 				{
					"destination" : [ "obj-26", 0 ],
					"source" : [ "obj-27", 0 ]
				}

			}
, 			{
				"patchline" : 				{
					"destination" : [ "obj-29", 0 ],
					"source" : [ "obj-28", 0 ]
				}

			}
, 			{
				"patchline" : 				{
					"destination" : [ "obj-33", 0 ],
					"midpoints" : [ 450.0, 520.0, 500.5, 520.0, 500.5, 565.0, 423.0, 565.0 ],
					"source" : [ "obj-29", 0 ]
				}

			}
, 			{
				"patchline" : 				{
					"destination" : [ "obj-14", 0 ],
					"source" : [ "obj-3", 0 ]
				}

			}
, 			{
				"patchline" : 				{
					"destination" : [ "obj-36", 0 ],
					"source" : [ "obj-30", 0 ]
				}

			}
, 			{
				"patchline" : 				{
					"destination" : [ "obj-30", 1 ],
					"source" : [ "obj-31", 0 ]
				}

			}
, 			{
				"patchline" : 				{
					"destination" : [ "obj-33", 0 ],
					"source" : [ "obj-31", 1 ]
				}

			}
, 			{
				"patchline" : 				{
					"destination" : [ "obj-34", 0 ],
					"source" : [ "obj-31", 2 ]
				}

			}
, 			{
				"patchline" : 				{
					"destination" : [ "obj-35", 0 ],
					"source" : [ "obj-33", 0 ]
				}

			}
, 			{
				"patchline" : 				{
					"destination" : [ "obj-35", 1 ],
					"source" : [ "obj-34", 0 ]
				}

			}
, 			{
				"patchline" : 				{
					"destination" : [ "obj-36", 1 ],
					"source" : [ "obj-35", 0 ]
				}

			}
, 			{
				"patchline" : 				{
					"destination" : [ "obj-22", 0 ],
					"source" : [ "obj-36", 0 ]
				}

			}
, 			{
				"patchline" : 				{
					"destination" : [ "obj-10", 0 ],
					"order" : 0,
					"source" : [ "obj-4", 3 ]
				}

			}
, 			{
				"patchline" : 				{
					"destination" : [ "obj-12", 0 ],
					"order" : 0,
					"source" : [ "obj-4", 4 ]
				}

			}
, 			{
				"patchline" : 				{
					"destination" : [ "obj-32", 0 ],
					"order" : 1,
					"source" : [ "obj-4", 4 ]
				}

			}
, 			{
				"patchline" : 				{
					"destination" : [ "obj-37", 0 ],
					"order" : 1,
					"source" : [ "obj-4", 3 ]
				}

			}
, 			{
				"patchline" : 				{
					"destination" : [ "obj-39", 0 ],
					"order" : 1,
					"source" : [ "obj-4", 2 ]
				}

			}
, 			{
				"patchline" : 				{
					"destination" : [ "obj-40", 0 ],
					"order" : 1,
					"source" : [ "obj-4", 1 ]
				}

			}
, 			{
				"patchline" : 				{
					"destination" : [ "obj-41", 0 ],
					"order" : 1,
					"source" : [ "obj-4", 0 ]
				}

			}
, 			{
				"patchline" : 				{
					"destination" : [ "obj-5", 0 ],
					"order" : 0,
					"source" : [ "obj-4", 0 ]
				}

			}
, 			{
				"patchline" : 				{
					"destination" : [ "obj-6", 0 ],
					"order" : 0,
					"source" : [ "obj-4", 1 ]
				}

			}
, 			{
				"patchline" : 				{
					"destination" : [ "obj-8", 0 ],
					"order" : 0,
					"source" : [ "obj-4", 2 ]
				}

			}
, 			{
				"patchline" : 				{
					"destination" : [ "obj-19", 0 ],
					"source" : [ "obj-5", 0 ]
				}

			}
, 			{
				"patchline" : 				{
					"destination" : [ "obj-19", 1 ],
					"source" : [ "obj-6", 0 ]
				}

			}
, 			{
				"patchline" : 				{
					"destination" : [ "obj-15", 0 ],
					"source" : [ "obj-7", 0 ]
				}

			}
, 			{
				"patchline" : 				{
					"destination" : [ "obj-19", 2 ],
					"source" : [ "obj-8", 0 ]
				}

			}
, 			{
				"patchline" : 				{
					"destination" : [ "obj-16", 0 ],
					"source" : [ "obj-9", 0 ]
				}

			}
 ],
		"parameters" : 		{
			"obj-11" : [ "four", "4", 0 ],
			"obj-13" : [ "five", "5", 0 ],
			"obj-26" : [ "scale", "scale", 0 ],
			"obj-29" : [ "offset", "offset", 0 ],
			"obj-3" : [ "one", "1", 0 ],
			"obj-7" : [ "two", "2", 0 ],
			"obj-9" : [ "three", "3", 0 ],
			"parameterbanks" : 			{
				"0" : 				{
					"index" : 0,
					"name" : "",
					"parameters" : [ "-", "-", "-", "-", "-", "-", "-", "-" ]
				}

			}
,
			"inherited_shortname" : 1
		}
,
		"dependency_cache" : [  ],
		"autosave" : 0
	}

}
