{
	"patcher" : 	{
		"fileversion" : 1,
		"appversion" : 		{
			"major" : 9,
			"minor" : 0,
			"revision" : 5,
			"architecture" : "x64",
			"modernui" : 1
		}
,
		"classnamespace" : "box",
		"rect" : [ 134.0, 134.0, 1980.0, 993.0 ],
		"default_fontname" : "Fira Sans Medium",
		"gridsize" : [ 11.0, 11.0 ],
		"gridsnaponopen" : 2,
		"objectsnaponopen" : 0,
		"subpatcher_template" : "My Default Template",
		"boxes" : [ 			{
				"box" : 				{
					"dstrect" : [ 0, 0, 480, 270 ],
					"id" : "obj-279",
					"maxclass" : "jit.pwindow",
					"numinlets" : 1,
					"numoutlets" : 2,
					"outlettype" : [ "jit_matrix", "" ],
					"patching_rect" : [ 396.0, 506.0, 480.0, 270.0 ],
					"sync" : 1
				}

			}
, 			{
				"box" : 				{
					"id" : "obj-11",
					"maxclass" : "toggle",
					"numinlets" : 1,
					"numoutlets" : 1,
					"outlettype" : [ "int" ],
					"parameter_enable" : 0,
					"patching_rect" : [ 396.0, 374.0, 24.0, 24.0 ]
				}

			}
, 			{
				"box" : 				{
					"id" : "obj-8",
					"maxclass" : "newobj",
					"numinlets" : 2,
					"numoutlets" : 1,
					"outlettype" : [ "bang" ],
					"patching_rect" : [ 396.0, 418.0, 64.0, 23.0 ],
					"text" : "qmetro 33"
				}

			}
, 			{
				"box" : 				{
					"id" : "obj-4",
					"maxclass" : "newobj",
					"numinlets" : 1,
					"numoutlets" : 2,
					"outlettype" : [ "jit_matrix", "" ],
					"patching_rect" : [ 396.0, 462.0, 104.0, 23.0 ],
					"text" : "jit.grab 1920 1080"
				}

			}
, 			{
				"box" : 				{
					"id" : "obj-805",
					"maxclass" : "newobj",
					"numinlets" : 1,
					"numoutlets" : 2,
					"outlettype" : [ "bang", "bang" ],
					"patching_rect" : [ 1243.0, 99.0, 33.0, 23.0 ],
					"text" : "t b b"
				}

			}
, 			{
				"box" : 				{
					"id" : "obj-629",
					"maxclass" : "button",
					"numinlets" : 1,
					"numoutlets" : 1,
					"outlettype" : [ "bang" ],
					"parameter_enable" : 0,
					"patching_rect" : [ 231.0, 374.0, 24.0, 24.0 ]
				}

			}
, 			{
				"box" : 				{
					"id" : "obj-627",
					"maxclass" : "newobj",
					"numinlets" : 1,
					"numoutlets" : 1,
					"outlettype" : [ "" ],
					"patching_rect" : [ 231.0, 418.0, 63.0, 23.0 ],
					"text" : "ClearPads"
				}

			}
, 			{
				"box" : 				{
					"id" : "obj-625",
					"maxclass" : "newobj",
					"numinlets" : 1,
					"numoutlets" : 1,
					"outlettype" : [ "" ],
					"patching_rect" : [ 1210.0, 275.0, 76.0, 23.0 ],
					"text" : "PrepNotes 8"
				}

			}
, 			{
				"box" : 				{
					"id" : "obj-616",
					"maxclass" : "newobj",
					"numinlets" : 1,
					"numoutlets" : 1,
					"outlettype" : [ "" ],
					"patching_rect" : [ 1067.0, 275.0, 92.5, 23.0 ],
					"text" : "PrepNotes 7"
				}

			}
, 			{
				"box" : 				{
					"id" : "obj-615",
					"maxclass" : "newobj",
					"numinlets" : 1,
					"numoutlets" : 1,
					"outlettype" : [ "" ],
					"patching_rect" : [ 924.0, 275.0, 92.5, 23.0 ],
					"text" : "PrepNotes 6"
				}

			}
, 			{
				"box" : 				{
					"id" : "obj-614",
					"maxclass" : "newobj",
					"numinlets" : 1,
					"numoutlets" : 1,
					"outlettype" : [ "" ],
					"patching_rect" : [ 781.0, 275.0, 92.5, 23.0 ],
					"text" : "PrepNotes 5"
				}

			}
, 			{
				"box" : 				{
					"id" : "obj-613",
					"maxclass" : "newobj",
					"numinlets" : 1,
					"numoutlets" : 1,
					"outlettype" : [ "" ],
					"patching_rect" : [ 638.0, 275.0, 92.5, 23.0 ],
					"text" : "PrepNotes 4"
				}

			}
, 			{
				"box" : 				{
					"id" : "obj-612",
					"maxclass" : "newobj",
					"numinlets" : 1,
					"numoutlets" : 1,
					"outlettype" : [ "" ],
					"patching_rect" : [ 495.0, 275.0, 92.5, 23.0 ],
					"text" : "PrepNotes 3"
				}

			}
, 			{
				"box" : 				{
					"id" : "obj-611",
					"maxclass" : "newobj",
					"numinlets" : 1,
					"numoutlets" : 1,
					"outlettype" : [ "" ],
					"patching_rect" : [ 352.0, 275.0, 92.5, 23.0 ],
					"text" : "PrepNotes 2"
				}

			}
, 			{
				"box" : 				{
					"id" : "obj-610",
					"maxclass" : "newobj",
					"numinlets" : 1,
					"numoutlets" : 1,
					"outlettype" : [ "" ],
					"patching_rect" : [ 209.0, 275.0, 92.5, 23.0 ],
					"text" : "PrepNotes 1"
				}

			}
, 			{
				"box" : 				{
					"id" : "obj-609",
					"maxclass" : "newobj",
					"numinlets" : 1,
					"numoutlets" : 1,
					"outlettype" : [ "" ],
					"patching_rect" : [ 66.0, 275.0, 92.5, 23.0 ],
					"text" : "PrepNotes 0"
				}

			}
, 			{
				"box" : 				{
					"id" : "obj-575",
					"maxclass" : "newobj",
					"numinlets" : 3,
					"numoutlets" : 0,
					"patching_rect" : [ 66.0, 385.0, 52.0, 23.0 ],
					"text" : "noteout"
				}

			}
, 			{
				"box" : 				{
					"id" : "obj-309",
					"maxclass" : "message",
					"numinlets" : 2,
					"numoutlets" : 1,
					"outlettype" : [ "" ],
					"patching_rect" : [ 1166.0, 231.0, 50.0, 23.0 ],
					"text" : "89"
				}

			}
, 			{
				"box" : 				{
					"id" : "obj-307",
					"maxclass" : "message",
					"numinlets" : 2,
					"numoutlets" : 1,
					"outlettype" : [ "" ],
					"patching_rect" : [ 1023.0, 231.0, 50.0, 23.0 ],
					"text" : "102"
				}

			}
, 			{
				"box" : 				{
					"id" : "obj-306",
					"maxclass" : "message",
					"numinlets" : 2,
					"numoutlets" : 1,
					"outlettype" : [ "" ],
					"patching_rect" : [ 880.0, 231.0, 50.0, 23.0 ],
					"text" : "61"
				}

			}
, 			{
				"box" : 				{
					"id" : "obj-305",
					"maxclass" : "message",
					"numinlets" : 2,
					"numoutlets" : 1,
					"outlettype" : [ "" ],
					"patching_rect" : [ 737.0, 231.0, 50.0, 23.0 ],
					"text" : "78"
				}

			}
, 			{
				"box" : 				{
					"id" : "obj-304",
					"maxclass" : "message",
					"numinlets" : 2,
					"numoutlets" : 1,
					"outlettype" : [ "" ],
					"patching_rect" : [ 594.0, 231.0, 50.0, 23.0 ],
					"text" : "123"
				}

			}
, 			{
				"box" : 				{
					"id" : "obj-303",
					"maxclass" : "message",
					"numinlets" : 2,
					"numoutlets" : 1,
					"outlettype" : [ "" ],
					"patching_rect" : [ 451.0, 231.0, 50.0, 23.0 ],
					"text" : "127"
				}

			}
, 			{
				"box" : 				{
					"id" : "obj-302",
					"maxclass" : "message",
					"numinlets" : 2,
					"numoutlets" : 1,
					"outlettype" : [ "" ],
					"patching_rect" : [ 308.0, 231.0, 50.0, 23.0 ],
					"text" : "112"
				}

			}
, 			{
				"box" : 				{
					"id" : "obj-301",
					"maxclass" : "message",
					"numinlets" : 2,
					"numoutlets" : 1,
					"outlettype" : [ "" ],
					"patching_rect" : [ 165.0, 231.0, 50.0, 23.0 ],
					"text" : "56"
				}

			}
, 			{
				"box" : 				{
					"id" : "obj-300",
					"maxclass" : "message",
					"numinlets" : 2,
					"numoutlets" : 1,
					"outlettype" : [ "" ],
					"patching_rect" : [ 22.0, 231.0, 50.0, 23.0 ],
					"text" : "82"
				}

			}
, 			{
				"box" : 				{
					"id" : "obj-14",
					"maxclass" : "message",
					"numinlets" : 2,
					"numoutlets" : 1,
					"outlettype" : [ "" ],
					"patching_rect" : [ 1320.0, 143.0, 56.0, 23.0 ],
					"text" : "cleardict"
				}

			}
, 			{
				"box" : 				{
					"id" : "obj-12",
					"maxclass" : "message",
					"numinlets" : 2,
					"numoutlets" : 1,
					"outlettype" : [ "" ],
					"patching_rect" : [ 1276.0, 143.0, 36.0, 23.0 ],
					"text" : "clear"
				}

			}
, 			{
				"box" : 				{
					"id" : "obj-10",
					"maxclass" : "button",
					"numinlets" : 1,
					"numoutlets" : 1,
					"outlettype" : [ "bang" ],
					"parameter_enable" : 0,
					"patching_rect" : [ 1243.0, 55.0, 24.0, 24.0 ]
				}

			}
, 			{
				"box" : 				{
					"id" : "obj-7",
					"maxclass" : "newobj",
					"numinlets" : 2,
					"numoutlets" : 5,
					"outlettype" : [ "dictionary", "", "", "", "" ],
					"patching_rect" : [ 1386.0, 143.0, 154.0, 23.0 ],
					"saved_object_attributes" : 					{
						"embed" : 0,
						"legacy" : 0,
						"parameter_enable" : 0,
						"parameter_mappable" : 0
					}
,
					"text" : "dict PadLeds PadLeds.json"
				}

			}
, 			{
				"box" : 				{
					"id" : "obj-5",
					"maxclass" : "dict.view",
					"numinlets" : 1,
					"numoutlets" : 0,
					"patching_rect" : [ 1386.0, 187.0, 198.0, 451.0 ]
				}

			}
, 			{
				"box" : 				{
					"filename" : "ColorSwatches.js",
					"id" : "obj-3",
					"maxclass" : "newobj",
					"numinlets" : 1,
					"numoutlets" : 1,
					"outlettype" : [ "" ],
					"patching_rect" : [ 1243.0, 187.0, 105.0, 23.0 ],
					"saved_object_attributes" : 					{
						"parameter_enable" : 0
					}
,
					"text" : "v8 ColorSwatches",
					"textfile" : 					{
						"filename" : "ColorSwatches.js",
						"flags" : 0,
						"embed" : 0,
						"autowatch" : 1
					}

				}

			}
, 			{
				"box" : 				{
					"id" : "obj-2",
					"maxclass" : "newobj",
					"numinlets" : 1,
					"numoutlets" : 1,
					"outlettype" : [ "bang" ],
					"patching_rect" : [ 1386.0, 99.0, 60.0, 23.0 ],
					"text" : "loadbang"
				}

			}
, 			{
				"box" : 				{
					"id" : "obj-35",
					"maxclass" : "message",
					"numinlets" : 2,
					"numoutlets" : 1,
					"outlettype" : [ "" ],
					"patching_rect" : [ 11.0, 187.0, 50.0, 23.0 ],
					"text" : "0 82"
				}

			}
, 			{
				"box" : 				{
					"id" : "obj-33",
					"maxclass" : "number",
					"numinlets" : 1,
					"numoutlets" : 2,
					"outlettype" : [ "", "bang" ],
					"parameter_enable" : 0,
					"patching_rect" : [ 22.0, 55.0, 50.0, 23.0 ]
				}

			}
, 			{
				"box" : 				{
					"id" : "obj-31",
					"maxclass" : "number",
					"numinlets" : 1,
					"numoutlets" : 2,
					"outlettype" : [ "", "bang" ],
					"parameter_enable" : 0,
					"patching_rect" : [ 121.0, 55.0, 50.0, 23.0 ]
				}

			}
, 			{
				"box" : 				{
					"id" : "obj-29",
					"maxclass" : "newobj",
					"numinlets" : 1,
					"numoutlets" : 9,
					"outlettype" : [ "", "", "", "", "", "", "", "", "" ],
					"patching_rect" : [ 66.0, 187.0, 1163.0, 23.0 ],
					"text" : "spray 9"
				}

			}
, 			{
				"box" : 				{
					"id" : "obj-20",
					"maxclass" : "newobj",
					"numinlets" : 2,
					"numoutlets" : 1,
					"outlettype" : [ "int" ],
					"patching_rect" : [ 88.0, 55.0, 30.0, 23.0 ],
					"text" : "- 48"
				}

			}
, 			{
				"box" : 				{
					"id" : "obj-17",
					"maxclass" : "newobj",
					"numinlets" : 2,
					"numoutlets" : 2,
					"outlettype" : [ "", "" ],
					"patching_rect" : [ 66.0, 143.0, 38.0, 23.0 ],
					"text" : "zl.rev"
				}

			}
, 			{
				"box" : 				{
					"id" : "obj-16",
					"maxclass" : "newobj",
					"numinlets" : 2,
					"numoutlets" : 1,
					"outlettype" : [ "" ],
					"patching_rect" : [ 66.0, 99.0, 41.0, 23.0 ],
					"text" : "join 2"
				}

			}
, 			{
				"box" : 				{
					"id" : "obj-6",
					"maxclass" : "newobj",
					"numinlets" : 1,
					"numoutlets" : 3,
					"outlettype" : [ "int", "int", "int" ],
					"patching_rect" : [ 66.0, 11.0, 63.0, 23.0 ],
					"text" : "ctlin"
				}

			}
, 			{
				"box" : 				{
					"attr" : "vdevice",
					"id" : "obj-281",
					"maxclass" : "attrui",
					"numinlets" : 1,
					"numoutlets" : 1,
					"outlettype" : [ "" ],
					"parameter_enable" : 0,
					"patching_rect" : [ 473.0, 418.0, 150.0, 23.0 ]
				}

			}
 ],
		"lines" : [ 			{
				"patchline" : 				{
					"destination" : [ "obj-805", 0 ],
					"source" : [ "obj-10", 0 ]
				}

			}
, 			{
				"patchline" : 				{
					"destination" : [ "obj-4", 0 ],
					"midpoints" : [ 405.5, 408.0, 387.0, 408.0, 387.0, 452.0, 405.5, 452.0 ],
					"order" : 0,
					"source" : [ "obj-11", 0 ]
				}

			}
, 			{
				"patchline" : 				{
					"destination" : [ "obj-8", 0 ],
					"order" : 1,
					"source" : [ "obj-11", 0 ]
				}

			}
, 			{
				"patchline" : 				{
					"destination" : [ "obj-3", 0 ],
					"source" : [ "obj-12", 0 ]
				}

			}
, 			{
				"patchline" : 				{
					"destination" : [ "obj-3", 0 ],
					"source" : [ "obj-14", 0 ]
				}

			}
, 			{
				"patchline" : 				{
					"destination" : [ "obj-17", 0 ],
					"source" : [ "obj-16", 0 ]
				}

			}
, 			{
				"patchline" : 				{
					"destination" : [ "obj-29", 0 ],
					"order" : 0,
					"source" : [ "obj-17", 0 ]
				}

			}
, 			{
				"patchline" : 				{
					"destination" : [ "obj-35", 1 ],
					"order" : 1,
					"source" : [ "obj-17", 0 ]
				}

			}
, 			{
				"patchline" : 				{
					"destination" : [ "obj-7", 0 ],
					"source" : [ "obj-2", 0 ]
				}

			}
, 			{
				"patchline" : 				{
					"destination" : [ "obj-16", 1 ],
					"source" : [ "obj-20", 0 ]
				}

			}
, 			{
				"patchline" : 				{
					"destination" : [ "obj-4", 0 ],
					"source" : [ "obj-281", 0 ]
				}

			}
, 			{
				"patchline" : 				{
					"destination" : [ "obj-300", 1 ],
					"order" : 1,
					"source" : [ "obj-29", 0 ]
				}

			}
, 			{
				"patchline" : 				{
					"destination" : [ "obj-301", 1 ],
					"order" : 1,
					"source" : [ "obj-29", 1 ]
				}

			}
, 			{
				"patchline" : 				{
					"destination" : [ "obj-302", 1 ],
					"order" : 1,
					"source" : [ "obj-29", 2 ]
				}

			}
, 			{
				"patchline" : 				{
					"destination" : [ "obj-303", 1 ],
					"order" : 1,
					"source" : [ "obj-29", 3 ]
				}

			}
, 			{
				"patchline" : 				{
					"destination" : [ "obj-304", 1 ],
					"order" : 1,
					"source" : [ "obj-29", 4 ]
				}

			}
, 			{
				"patchline" : 				{
					"destination" : [ "obj-305", 1 ],
					"order" : 1,
					"source" : [ "obj-29", 5 ]
				}

			}
, 			{
				"patchline" : 				{
					"destination" : [ "obj-306", 1 ],
					"order" : 1,
					"source" : [ "obj-29", 6 ]
				}

			}
, 			{
				"patchline" : 				{
					"destination" : [ "obj-307", 1 ],
					"order" : 1,
					"source" : [ "obj-29", 7 ]
				}

			}
, 			{
				"patchline" : 				{
					"destination" : [ "obj-309", 1 ],
					"order" : 1,
					"source" : [ "obj-29", 8 ]
				}

			}
, 			{
				"patchline" : 				{
					"destination" : [ "obj-609", 0 ],
					"order" : 0,
					"source" : [ "obj-29", 0 ]
				}

			}
, 			{
				"patchline" : 				{
					"destination" : [ "obj-610", 0 ],
					"order" : 0,
					"source" : [ "obj-29", 1 ]
				}

			}
, 			{
				"patchline" : 				{
					"destination" : [ "obj-611", 0 ],
					"order" : 0,
					"source" : [ "obj-29", 2 ]
				}

			}
, 			{
				"patchline" : 				{
					"destination" : [ "obj-612", 0 ],
					"order" : 0,
					"source" : [ "obj-29", 3 ]
				}

			}
, 			{
				"patchline" : 				{
					"destination" : [ "obj-613", 0 ],
					"order" : 0,
					"source" : [ "obj-29", 4 ]
				}

			}
, 			{
				"patchline" : 				{
					"destination" : [ "obj-614", 0 ],
					"order" : 0,
					"source" : [ "obj-29", 5 ]
				}

			}
, 			{
				"patchline" : 				{
					"destination" : [ "obj-615", 0 ],
					"order" : 0,
					"source" : [ "obj-29", 6 ]
				}

			}
, 			{
				"patchline" : 				{
					"destination" : [ "obj-616", 0 ],
					"order" : 0,
					"source" : [ "obj-29", 7 ]
				}

			}
, 			{
				"patchline" : 				{
					"destination" : [ "obj-625", 0 ],
					"order" : 0,
					"source" : [ "obj-29", 8 ]
				}

			}
, 			{
				"patchline" : 				{
					"destination" : [ "obj-279", 0 ],
					"source" : [ "obj-4", 0 ]
				}

			}
, 			{
				"patchline" : 				{
					"destination" : [ "obj-16", 0 ],
					"order" : 0,
					"source" : [ "obj-6", 0 ]
				}

			}
, 			{
				"patchline" : 				{
					"destination" : [ "obj-20", 0 ],
					"order" : 1,
					"source" : [ "obj-6", 1 ]
				}

			}
, 			{
				"patchline" : 				{
					"destination" : [ "obj-31", 0 ],
					"order" : 0,
					"source" : [ "obj-6", 1 ]
				}

			}
, 			{
				"patchline" : 				{
					"destination" : [ "obj-33", 0 ],
					"order" : 1,
					"source" : [ "obj-6", 0 ]
				}

			}
, 			{
				"patchline" : 				{
					"destination" : [ "obj-575", 0 ],
					"source" : [ "obj-609", 0 ]
				}

			}
, 			{
				"patchline" : 				{
					"destination" : [ "obj-575", 0 ],
					"source" : [ "obj-610", 0 ]
				}

			}
, 			{
				"patchline" : 				{
					"destination" : [ "obj-575", 0 ],
					"source" : [ "obj-611", 0 ]
				}

			}
, 			{
				"patchline" : 				{
					"destination" : [ "obj-575", 0 ],
					"source" : [ "obj-612", 0 ]
				}

			}
, 			{
				"patchline" : 				{
					"destination" : [ "obj-575", 0 ],
					"source" : [ "obj-613", 0 ]
				}

			}
, 			{
				"patchline" : 				{
					"destination" : [ "obj-575", 0 ],
					"source" : [ "obj-614", 0 ]
				}

			}
, 			{
				"patchline" : 				{
					"destination" : [ "obj-575", 0 ],
					"source" : [ "obj-615", 0 ]
				}

			}
, 			{
				"patchline" : 				{
					"destination" : [ "obj-575", 0 ],
					"source" : [ "obj-616", 0 ]
				}

			}
, 			{
				"patchline" : 				{
					"destination" : [ "obj-575", 0 ],
					"source" : [ "obj-627", 0 ]
				}

			}
, 			{
				"patchline" : 				{
					"destination" : [ "obj-627", 0 ],
					"source" : [ "obj-629", 0 ]
				}

			}
, 			{
				"patchline" : 				{
					"destination" : [ "obj-3", 0 ],
					"order" : 1,
					"source" : [ "obj-7", 0 ]
				}

			}
, 			{
				"patchline" : 				{
					"destination" : [ "obj-5", 0 ],
					"order" : 0,
					"source" : [ "obj-7", 0 ]
				}

			}
, 			{
				"patchline" : 				{
					"destination" : [ "obj-4", 0 ],
					"source" : [ "obj-8", 0 ]
				}

			}
, 			{
				"patchline" : 				{
					"destination" : [ "obj-3", 0 ],
					"source" : [ "obj-805", 0 ]
				}

			}
, 			{
				"patchline" : 				{
					"destination" : [ "obj-7", 0 ],
					"source" : [ "obj-805", 1 ]
				}

			}
 ],
		"originid" : "pat-52",
		"dependency_cache" : [ 			{
				"name" : "ClearPads.maxpat",
				"bootpath" : "~/Music/Composing/Max MSP/Shared on Github/Akai APC mini mkii Fader Colors",
				"patcherrelativepath" : ".",
				"type" : "JSON",
				"implicit" : 1
			}
, 			{
				"name" : "ColorSwatches.js",
				"bootpath" : "~/Music/Composing/Max MSP/Shared on Github/Akai APC mini mkii Fader Colors",
				"patcherrelativepath" : ".",
				"type" : "TEXT",
				"implicit" : 1
			}
, 			{
				"name" : "PrepNotes.maxpat",
				"bootpath" : "~/Music/Composing/Max MSP/Shared on Github/Akai APC mini mkii Fader Colors",
				"patcherrelativepath" : ".",
				"type" : "JSON",
				"implicit" : 1
			}
 ],
		"autosave" : 0,
		"toolbaradditions" : [ "audiomute", "audiosolo", "packagemanager", "browsegendsp", "browsegenjit", "lessonbrowser" ]
	}

}
